<?xml version="1.0" encoding="UTF-8" standalone="no"?>
<svg
   xmlns:dc="http://purl.org/dc/elements/1.1/"
   xmlns:cc="http://creativecommons.org/ns#"
   xmlns:rdf="http://www.w3.org/1999/02/22-rdf-syntax-ns#"
   xmlns:svg="http://www.w3.org/2000/svg"
   xmlns="http://www.w3.org/2000/svg"
   xmlns:xlink="http://www.w3.org/1999/xlink"
   xmlns:sodipodi="http://sodipodi.sourceforge.net/DTD/sodipodi-0.dtd"
   xmlns:inkscape="http://www.inkscape.org/namespaces/inkscape"
   width="90"
   height="260"
   version="1.1"
   id="svg30"
   sodipodi:docname="figII-03-blockchain.svg"
   inkscape:version="0.92.5 (2060ec1f9f, 2020-04-08)">
  <metadata
     id="metadata36">
    <rdf:RDF>
      <cc:Work
         rdf:about="">
        <dc:format>image/svg+xml</dc:format>
        <dc:type
           rdf:resource="http://purl.org/dc/dcmitype/StillImage" />
        <dc:title></dc:title>
      </cc:Work>
    </rdf:RDF>
  </metadata>
  <defs
     id="defs34" />
  <sodipodi:namedview
     pagecolor="#ffffff"
     bordercolor="#666666"
     borderopacity="1"
     objecttolerance="10"
     gridtolerance="10"
     guidetolerance="10"
     inkscape:pageopacity="0"
     inkscape:pageshadow="2"
     inkscape:window-width="2517"
     inkscape:window-height="1946"
     id="namedview32"
     showgrid="false"
     fit-margin-top="0"
     fit-margin-left="0"
     fit-margin-right="0"
     fit-margin-bottom="0"
     inkscape:zoom="4.9262642"
     inkscape:cx="37.547512"
     inkscape:cy="149.01594"
     inkscape:window-x="1003"
     inkscape:window-y="109"
     inkscape:window-maximized="0"
     inkscape:current-layer="svg30" />
  <g
     id="g858"
     transform="translate(-6,-6)">
    <rect
       id="r"
       y="6"
       x="26"
       height="20"
       width="20" />
    <use
       id="use3"
       xlink:href="#r"
       y="30"
       x="0"
       width="100%"
       height="100%" />
    <use
       id="use5"
       xlink:href="#r"
       y="60"
       x="0"
       width="100%"
       height="100%" />
    <use
       id="use7"
       xlink:href="#r"
       y="90"
       x="20"
       width="100%"
       height="100%" />
    <use
       id="use9"
       xlink:href="#r"
       y="120"
       x="20"
       width="100%"
       height="100%" />
    <use
       id="use11"
       xlink:href="#r"
       y="150"
       x="20"
       width="100%"
       height="100%" />
    <use
       id="use13"
       xlink:href="#r"
       y="180"
       x="20"
       width="100%"
       height="100%" />
    <use
       id="use15"
       xlink:href="#r"
       y="210"
       x="0"
       width="100%"
       height="100%" />
    <rect
       id="t"
       y="66.5"
       x="66.5"
       height="19"
       width="19"
       style="fill:#9865c3;stroke:#000000" />
    <use
       id="use18"
       xlink:href="#t"
       y="-30"
       x="0"
       width="100%"
       height="100%" />
    <use
       id="use20"
       xlink:href="#t"
       y="30"
       x="10"
       width="100%"
       height="100%" />
    <use
       id="use22"
       xlink:href="#t"
       y="60"
       x="10"
       width="100%"
       height="100%" />
    <use
       id="use24"
       xlink:href="#t"
       y="120"
       x="-60"
       width="100%"
       height="100%" />
    <rect
       id="rect26"
       y="246.5"
       x="26.5"
       height="19"
       width="19"
       style="fill:#448e73;stroke:#000000" />
    <path
       id="path28"
       d="M 66,136 H 76 M 36,236 v 10 m 20,-70 v 10 m 0,-40 v 10 m 30,-40 v 10 M 56,116 v 10 M 76,56 V 66 M 36,56 V 66 M 36,26 V 36 M 14.813189,205.34165 37.464028,217.91519 M 57.070035,205.22195 36.077544,217.0773 M 34.788331,85.490793 57.43917,98.064333 m 19.606007,-12.69324 -20.992491,11.85535"
       inkscape:connector-curvature="0"
       style="fill:none;stroke:#000000" />
  </g>
</svg>
