<?xml version="1.0" encoding="UTF-8" standalone="no"?>
<svg
   xmlns:dc="http://purl.org/dc/elements/1.1/"
   xmlns:cc="http://creativecommons.org/ns#"
   xmlns:rdf="http://www.w3.org/1999/02/22-rdf-syntax-ns#"
   xmlns:svg="http://www.w3.org/2000/svg"
   xmlns="http://www.w3.org/2000/svg"
   xmlns:sodipodi="http://sodipodi.sourceforge.net/DTD/sodipodi-0.dtd"
   xmlns:inkscape="http://www.inkscape.org/namespaces/inkscape"
   version="1.1"
   x="0"
   y="0"
   width="562"
   height="442"
   viewBox="0, 0, 562, 442"
   id="svg5"
   sodipodi:docname="graphII-06-diploma-symbol.svg"
   inkscape:version="0.92.5 (2060ec1f9f, 2020-04-08)">
  <metadata
     id="metadata11">
    <rdf:RDF>
      <cc:Work
         rdf:about="">
        <dc:format>image/svg+xml</dc:format>
        <dc:type
           rdf:resource="http://purl.org/dc/dcmitype/StillImage" />
        <dc:title></dc:title>
      </cc:Work>
    </rdf:RDF>
  </metadata>
  <defs
     id="defs9" />
  <sodipodi:namedview
     pagecolor="#ffffff"
     bordercolor="#666666"
     borderopacity="1"
     objecttolerance="10"
     gridtolerance="10"
     guidetolerance="10"
     inkscape:pageopacity="0"
     inkscape:pageshadow="2"
     inkscape:window-width="2127"
     inkscape:window-height="1649"
     id="namedview7"
     showgrid="false"
     inkscape:zoom="1.5102009"
     inkscape:cx="422.99551"
     inkscape:cy="-18.135971"
     inkscape:window-x="922"
     inkscape:window-y="332"
     inkscape:window-maximized="0"
     inkscape:current-layer="svg5" />
  <g
     id="Layer_1">
    <path
       d="M427.117,198.507 L446.404,198.507 C447.736,198.507 448.815,197.428 448.815,196.096 C448.815,194.764 447.736,193.685 446.404,193.685 L427.117,193.685 C425.786,193.685 424.706,194.764 424.706,196.096 C424.706,197.428 425.786,198.507 427.117,198.507 M446.886,200.436 L427.599,200.436 C426.267,200.436 425.188,201.515 425.188,202.846 C425.188,204.178 426.267,205.257 427.599,205.257 L446.886,205.257 C448.217,205.257 449.296,204.178 449.296,202.846 C449.296,201.515 448.217,200.436 446.886,200.436 M446.404,207.187 L427.117,207.187 C425.786,207.187 424.706,208.266 424.706,209.596 C424.706,210.929 425.786,212.007 427.117,212.007 L446.404,212.007 C447.736,212.007 448.815,210.929 448.815,209.596 C448.815,208.266 447.736,207.187 446.404,207.187 M344.702,277.437 L344.553,277.219 L344.511,276.959 C343.474,270.406 322.48,263.851 309.641,260.654 C315.755,266.762 318.597,277.743 317.718,292.376 C316.202,317.635 303.316,350.621 288.284,359.128 C307.526,365.216 329.604,372.371 333.648,373.681 C335.986,371.481 346.269,361.26 352.85,345.956 C362.763,322.9 360.022,299.846 344.702,277.437 M452.777,306.333 C452.019,300.611 451.255,294.952 450.501,289.419 C451.036,294.965 451.572,300.558 452.098,306.156 C452.324,306.215 452.551,306.275 452.777,306.333 M447.131,304.846 C446.578,298.983 446.02,293.172 445.47,287.476 C445.614,290.057 445.758,292.653 445.904,295.263 C446.077,298.375 446.251,301.512 446.427,304.662 C446.662,304.723 446.897,304.786 447.131,304.846 M441.526,303.372 C441.38,300.746 441.235,298.13 441.089,295.532 C440.906,292.237 440.723,288.962 440.542,285.715 C440.623,291.448 440.71,297.287 440.805,303.181 C441.045,303.245 441.286,303.308 441.526,303.372 M435.962,301.906 C435.867,295.852 435.777,289.857 435.698,283.985 C435.528,289.794 435.37,295.723 435.223,301.711 L435.962,301.906 z M430.439,300.45 C430.586,294.465 430.746,288.547 430.917,282.75 C430.499,288.507 430.095,294.359 429.71,300.257 C429.954,300.321 430.197,300.385 430.439,300.45 M424.959,299.002 C425.344,293.219 425.745,287.521 426.154,281.957 C425.506,287.471 424.869,293.106 424.252,298.815 C424.489,298.877 424.724,298.94 424.959,299.002 M419.486,297.551 C420.075,292.147 420.684,286.801 421.304,281.554 C420.459,286.733 419.625,292.021 418.814,297.374 C419.038,297.433 419.261,297.493 419.486,297.551 M513.251,439.548 C506.763,437.172 488.72,430.202 465.183,421.255 C464.47,425.716 463.421,429.256 461.972,431.672 L457.837,429.192 C459.13,427.036 460.053,423.746 460.667,419.541 C459.745,419.191 458.818,418.839 457.88,418.484 C457.42,423.918 456.666,428.27 455.552,431.271 L451.032,429.592 C452.106,426.697 452.81,422.295 453.213,416.716 C452.248,416.351 451.275,415.984 450.296,415.614 C450.101,422.084 449.706,427.295 449.051,430.866 L444.308,429.998 C444.983,426.317 445.372,420.773 445.539,413.819 C444.551,413.446 443.558,413.072 442.559,412.697 C442.606,420.18 442.586,426.253 442.477,430.494 L437.657,430.37 C437.774,425.833 437.787,419.158 437.725,410.879 C436.715,410.5 435.701,410.119 434.681,409.738 C434.942,418.27 435.324,425.276 435.851,430.173 L431.057,430.69 C430.482,425.34 430.077,417.502 429.815,407.916 C428.796,407.535 427.773,407.152 426.748,406.77 C427.175,416.407 427.959,424.355 429.195,429.909 L424.488,430.955 C423.087,424.656 422.24,415.685 421.812,404.931 C420.779,404.546 419.741,404.161 418.702,403.775 C419.262,414.39 420.469,423.307 422.525,429.694 L417.934,431.17 C415.62,423.976 414.317,413.899 413.772,401.947 C412.722,401.559 411.669,401.169 410.616,400.781 C411.264,412.415 412.895,422.304 415.847,429.519 L411.385,431.344 C408.084,423.276 406.354,412.102 405.767,398.994 C382.126,390.296 357.816,381.586 336.316,374.37 C338.648,372.07 343.172,367.239 347.731,360.316 L347.493,360.017 C347.726,359.884 347.952,359.75 348.183,359.618 C350.558,355.938 352.92,351.703 354.966,346.961 C355.079,346.7 355.189,346.429 355.3,346.164 C357.274,347.096 359.28,348.044 361.319,349.007 C363.333,346.346 364.966,343.192 366.364,339.687 C368.267,334.894 369.719,329.641 371.085,324.366 C372.447,319.076 373.667,313.708 374.919,308.355 C375.221,313.847 375.56,319.333 375.741,324.868 C375.91,330.408 376.016,335.983 375.487,341.806 L375.273,344 L374.921,346.224 C374.76,347.455 374.465,348.693 374.164,349.942 C375.371,348.021 376.441,345.92 377.4,343.661 C379.432,338.863 380.963,333.565 382.361,328.22 C383.755,322.863 384.948,317.404 386.167,311.952 C386.503,317.529 386.869,323.105 387.014,328.741 C387.148,334.38 387.169,340.074 386.468,346 C386.374,346.742 386.297,347.486 386.185,348.233 L385.76,350.488 C385.575,351.663 385.25,352.838 384.925,354.022 C386.233,352.083 387.393,349.952 388.426,347.65 C390.59,342.843 392.205,337.5 393.633,332.083 C395.06,326.653 396.232,321.102 397.413,315.549 C397.788,321.212 398.176,326.884 398.285,332.624 C398.38,338.365 398.313,344.177 397.437,350.205 C397.318,350.958 397.239,351.715 397.081,352.473 L396.586,354.758 C396.381,355.875 396.036,356.981 395.689,358.096 C397.065,356.125 398.374,353.999 399.445,351.652 C401.74,346.836 403.441,341.443 404.906,335.954 C406.365,330.448 407.517,324.803 408.659,319.147 C409.074,324.899 409.481,330.668 409.554,336.514 C409.61,342.36 409.446,348.294 408.394,354.417 C407.985,356.979 407.31,359.564 406.46,362.153 C407.916,360.172 409.308,358.034 410.455,355.666 C412.881,350.838 414.673,345.395 416.175,339.83 C417.667,334.248 418.806,328.506 419.904,322.745 C420.364,328.587 420.785,334.458 420.823,340.413 C420.834,346.366 420.569,352.422 419.336,358.637 C418.868,361.15 418.142,363.67 417.247,366.188 L418.286,364.795 C418.677,364.273 419.089,363.759 419.416,363.179 C420.091,362.037 420.878,360.942 421.456,359.693 C424.015,354.851 425.902,349.356 427.446,343.713 C428.967,338.05 430.097,332.213 431.151,326.342 C431.655,332.279 432.086,338.252 432.089,344.319 C432.054,350.381 431.681,356.56 430.269,362.863 C429.985,364.449 429.436,366.002 428.983,367.59 C428.771,368.39 428.451,369.162 428.144,369.943 L428.033,370.223 C428.777,369.238 429.602,368.289 430.301,367.223 L431.961,364.648 L432.447,363.73 C435.141,358.873 437.126,353.326 438.713,347.603 C440.265,341.858 441.391,335.921 442.397,329.939 C442.95,335.972 443.387,342.051 443.354,348.232 C443.27,354.406 442.785,360.708 441.188,367.093 L440.905,368.295 L440.528,369.483 L439.757,371.874 C439.493,372.66 439.179,373.433 438.85,374.207 C439.625,373.253 440.439,372.305 441.178,371.281 L442.326,369.561 C442.718,368.988 443.112,368.409 443.43,367.778 C446.26,362.901 448.346,357.301 449.981,351.498 C451.561,345.667 452.688,339.631 453.643,333.537 C454.247,339.667 454.684,345.855 454.618,352.152 C454.481,358.438 453.876,364.863 452.096,371.329 C451.913,372.145 451.638,372.943 451.357,373.742 L450.519,376.157 C450.253,376.847 449.953,377.53 449.648,378.212 C450.457,377.287 451.261,376.336 452.045,375.346 L453.241,373.618 C453.635,373.034 454.076,372.472 454.404,371.834 C457.369,366.937 459.569,361.286 461.241,355.396 C462.862,349.482 463.985,343.342 464.889,337.134 C465.543,343.364 465.988,349.663 465.874,356.077 C465.693,362.48 464.957,369.026 462.994,375.567 C462.795,376.397 462.461,377.19 462.173,378.002 L461.269,380.441 C461.009,381.036 460.73,381.63 460.452,382.225 C462.266,380.34 463.921,378.236 465.369,375.899 C468.466,370.98 470.792,365.277 472.492,359.298 C474.167,353.302 475.282,347.055 476.135,340.732 C476.84,347.061 477.294,353.475 477.122,360.008 C476.908,366.529 476.024,373.195 473.879,379.807 C473.201,381.956 472.333,384.083 471.321,386.169 C473.158,384.321 474.845,382.26 476.325,379.971 C479.555,375.029 482.014,369.275 483.743,363.205 C485.471,357.125 486.581,350.769 487.382,344.33 C488.139,350.762 488.602,357.292 488.367,363.943 C488.12,370.584 487.082,377.37 484.755,384.05 C484.047,386.117 483.164,388.157 482.149,390.154 C484.016,388.33 485.74,386.3 487.272,384.051 C490.644,379.086 493.222,373.275 494.989,367.115 C496.775,360.95 497.882,354.483 498.627,347.926 C499.44,354.462 499.91,361.113 499.608,367.884 C499.315,374.647 498.136,381.549 495.622,388.294 C494.88,390.281 493.981,392.239 492.965,394.156 C494.864,392.353 496.625,390.347 498.203,388.131 C501.751,383.16 504.398,377.268 506.233,371.028 C508.081,364.778 509.185,358.2 509.874,351.524 C510.743,358.165 511.217,364.937 510.846,371.829 C510.477,378.708 509.208,385.741 506.469,392.535 C505.704,394.442 504.799,396.319 503.788,398.157 C505.711,396.376 507.505,394.399 509.115,392.212 C512.814,387.221 515.571,381.269 517.473,374.944 C519.385,368.609 520.49,361.916 521.12,355.121 C522.047,361.868 522.526,368.764 522.082,375.778 C521.636,382.775 520.231,389.926 517.296,396.77 C516.519,398.599 515.617,400.398 514.615,402.156 C516.561,400.401 518.379,398.452 520.02,396.297 C523.861,391.282 526.745,385.277 528.712,378.864 C530.69,372.442 531.798,365.634 532.367,358.719 C533.354,365.572 533.833,372.594 533.314,379.73 C532.794,386.848 531.235,394.109 528.116,401.004 C527.331,402.754 526.438,404.474 525.449,406.154 C527.411,404.424 529.249,402.505 530.915,400.386 C534.9,395.346 537.912,389.287 539.947,382.786 C541.995,376.277 543.108,369.353 543.613,362.317 C544.663,369.276 545.141,376.428 544.542,383.685 C543.947,390.925 542.23,398.293 538.926,405.237 C535.65,412.173 530.74,418.614 524.546,423.759 C524.152,424.089 523.739,424.398 523.335,424.717 C524.162,425.101 524.6,425.304 524.6,425.304 C524.6,425.304 576.109,396.198 538.39,338.916 C487.309,326.935 395.818,300.792 353.842,288.638 C352.096,284.937 349.976,281.164 347.438,277.331 C366.049,283.134 389.769,289.64 414.137,296.13 C418.046,270.317 422.521,246.099 425.809,228.306 C426.887,222.471 427.838,217.322 428.601,213.032 L430.346,213.342 L430.378,213.116 L432.14,213.366 L432.159,213.199 L433.936,213.389 L433.943,213.283 L435.727,213.411 L435.729,213.366 L437.974,213.449 L441.554,213.459 L444.129,213.381 L444.131,213.416 L445.917,213.301 C446.785,226.909 449.91,249.652 453.527,275.988 C454.936,286.243 456.402,296.916 457.818,307.664 C495.07,317.499 527.167,326.202 536.305,330.905 C558.825,342.495 582.48,405.795 513.251,439.548 M108.566,294.461 C114.867,290.722 120.567,285.965 125.392,280.463 C130.228,274.965 134.194,268.757 137.319,262.197 C140.458,255.636 142.729,248.708 144.293,241.657 C145.854,234.6 146.707,227.408 146.884,220.196 C147.052,212.983 146.558,205.742 145.229,198.583 C144.602,194.998 143.636,191.45 142.489,187.936 C141.248,184.437 139.731,180.981 137.639,177.684 L135.873,175.28 C135.237,174.5 134.47,173.77 133.764,173.023 C132.308,171.661 130.813,170.518 129.225,169.429 C126.052,167.288 122.617,165.616 119.064,164.365 C111.948,161.873 104.379,161.008 96.945,161.619 C89.518,162.271 82.193,164.393 75.616,168.026 C72.341,169.86 69.268,172.062 66.478,174.582 C65.799,175.231 65.077,175.838 64.438,176.529 L62.516,178.591 C61.331,180.048 60.125,181.492 59.102,183.063 C56.99,186.159 55.193,189.467 53.84,192.929 C53.078,194.631 52.591,196.421 51.982,198.171 L51.286,200.852 L50.942,202.191 L50.667,203.507 C49.179,210.521 48.201,217.711 48.312,225.035 C48.37,228.692 48.701,232.383 49.489,236.047 C50.283,239.703 51.53,243.352 53.505,246.718 C55.478,250.067 58.283,253.1 61.723,255.175 C63.434,256.234 65.302,256.982 67.194,257.573 C69.103,258.069 71.046,258.455 72.979,258.512 C76.852,258.735 80.635,258.167 84.209,257.18 C86.005,256.68 87.737,256.103 89.464,255.41 C90.323,255.027 91.206,254.704 92.04,254.266 C92.867,253.816 93.727,253.428 94.523,252.922 C101.041,249.097 106.137,243.055 109.071,236.242 C111.996,229.413 113.079,221.913 112.276,214.602 C111.841,210.954 111.011,207.317 109.464,203.915 C108.744,202.197 107.759,200.58 106.686,199.03 C105.572,197.498 104.25,196.098 102.754,194.884 C101.231,193.7 99.497,192.748 97.651,192.122 C95.804,191.475 93.831,191.27 91.915,191.344 C88.049,191.491 84.435,192.978 81.388,195.078 C78.358,197.22 75.811,200.011 74.06,203.263 C73.169,204.876 72.471,206.607 72.058,208.411 C71.637,210.207 71.406,212.065 71.542,213.914 C71.74,217.613 73.14,221.188 75.331,224.068 C76.387,225.547 77.687,226.808 78.951,228.033 C80.265,229.228 81.626,230.384 83.131,231.364 C84.633,232.331 86.308,233.15 88.152,233.379 C89.065,233.477 90.026,233.429 90.903,233.093 C91.78,232.765 92.545,232.209 93.161,231.545 C94.402,230.206 95.11,228.524 95.592,226.837 C96.05,225.141 96.362,223.386 96.268,221.634 C96.274,223.383 95.874,225.112 95.338,226.758 C94.784,228.394 93.997,229.994 92.783,231.173 C92.181,231.759 91.468,232.217 90.688,232.466 C89.908,232.721 89.069,232.719 88.26,232.591 C86.628,232.304 85.104,231.478 83.727,230.485 C81.01,228.457 78.477,225.946 76.56,223.197 C74.632,220.427 73.527,217.145 73.489,213.843 C73.41,207.188 77.421,200.892 82.909,197.334 C85.665,195.573 88.837,194.428 91.998,194.428 C93.567,194.425 95.135,194.639 96.579,195.208 C98.025,195.761 99.369,196.555 100.58,197.561 C101.758,198.603 102.831,199.783 103.741,201.109 C104.613,202.459 105.433,203.865 106.022,205.396 C107.299,208.41 107.96,211.702 108.262,214.997 C108.814,221.612 107.625,228.392 104.872,234.354 C102.082,240.297 97.62,245.37 91.977,248.538 C90.568,249.33 89.099,250.013 87.584,250.591 C86.054,251.17 84.452,251.67 82.868,252.078 C79.689,252.893 76.446,253.29 73.327,253.042 C71.756,252.971 70.254,252.62 68.789,252.221 C67.356,251.731 65.963,251.151 64.709,250.335 C63.463,249.516 62.278,248.591 61.281,247.452 C60.744,246.925 60.311,246.29 59.837,245.696 C59.405,245.065 58.979,244.424 58.597,243.752 C55.543,238.313 54.483,231.612 54.467,224.97 C54.44,218.289 55.425,211.526 56.922,204.878 L57.198,203.63 L57.522,202.431 L58.172,200.038 C58.739,198.495 59.182,196.897 59.876,195.413 C61.102,192.369 62.71,189.508 64.571,186.849 C68.252,181.488 73.238,177.126 78.896,173.96 C84.595,170.843 90.998,169.007 97.509,168.459 C104.02,167.948 110.652,168.749 116.741,170.91 C119.781,171.994 122.679,173.425 125.301,175.211 C125.934,175.684 126.61,176.108 127.213,176.615 C127.791,177.125 128.478,177.613 128.971,178.136 C129.449,178.675 129.971,179.142 130.435,179.716 L131.774,181.543 C133.442,184.159 134.784,187.127 135.894,190.218 C136.923,193.351 137.824,196.565 138.412,199.875 C139.664,206.471 140.162,213.267 140.029,220.041 C139.747,233.589 136.939,247.158 131.316,259.378 C128.497,265.478 124.92,271.21 120.573,276.274 C116.233,281.341 111.116,285.715 105.42,289.192 C99.738,292.71 93.4,295.099 86.894,296.783 C83.656,297.726 80.29,298.148 76.954,298.718 C73.598,299.125 70.227,299.348 66.869,299.323 C60.166,299.203 53.493,298.068 47.381,295.489 C41.266,292.937 35.802,288.936 31.364,283.944 C26.914,278.949 23.497,273.004 20.981,266.685 C18.453,260.358 16.849,253.639 15.868,246.833 C13.907,233.192 14.587,219.141 17.296,205.534 C18.679,198.73 20.625,192.023 23.258,185.578 C25.879,179.14 29.195,172.923 33.588,167.461 C28.925,172.695 25.264,178.788 22.291,185.158 C19.345,191.552 17.102,198.265 15.407,205.111 C13.71,211.959 12.65,218.966 12.128,226.02 C11.607,233.075 11.696,240.191 12.465,247.264 C13.254,254.33 14.752,261.365 17.23,268.118 C19.706,274.857 23.178,281.34 27.899,286.942 C32.588,292.556 38.615,297.156 45.372,300.125 C52.125,303.13 59.473,304.514 66.74,304.782 C70.38,304.882 74.009,304.712 77.607,304.346 C81.18,303.816 84.779,303.423 88.296,302.482 C95.341,300.798 102.276,298.239 108.566,294.461 M284.654,358.226 L283.639,358.578 C212.78,340.735 85.791,319.158 35.111,303.621 C-22.75,263.118 8.522,175.009 29.44,162.039 L57.291,176.327 C57.291,176.327 72.721,154.147 102.857,154.912 C108.753,155.062 125.234,162.407 146.696,173.297 C147.547,173.728 148.408,174.168 149.275,174.611 L176.493,118.133 L180.432,116.428 C214.931,101.484 257.857,82.881 285.262,84.711 C313.059,86.565 378.632,125.517 383.575,131.447 C386.853,135.38 401.512,183.519 411.211,217.083 C379.274,199.374 315.905,202.623 281.614,224.206 C282.336,213.55 282.739,202.894 283.005,192.239 C283.186,186.613 283.22,180.988 283.328,175.363 L283.429,158.487 L283.322,141.611 C283.218,135.986 283.178,130.36 283,124.735 C282.717,113.484 282.298,102.234 281.5,90.983 C280.703,102.234 280.286,113.484 280.001,124.735 C279.824,130.36 279.785,135.986 279.68,141.611 L279.574,158.487 L279.675,175.363 C279.783,180.988 279.818,186.613 279.996,192.239 C280.264,202.899 280.666,213.558 281.389,224.218 C252.221,206.18 216.277,196.877 185.805,193.935 C188.001,195.125 190.21,196.327 192.434,197.541 C229.976,218.018 270.572,241.134 296.533,255.366 L295.167,255.075 L303.173,258.982 C303.792,259.317 304.398,259.644 304.994,259.963 C309.029,262.429 311.958,266.743 313.688,272.636 L148.685,185.072 C171.425,227.384 144.23,281.757 123.956,292.902 C126.38,291.882 128.78,290.704 131.108,289.363 C137.991,285.41 144.368,280.171 149.875,274.018 C155.39,267.864 160.039,260.778 163.627,253.077 C167.224,245.375 169.752,237.068 171.266,228.466 C171.308,237.182 170.309,246.017 168.031,254.668 C165.878,262.868 162.563,270.88 158.126,278.363 C158.553,277.906 158.984,277.453 159.402,276.984 C164.816,270.903 169.36,263.887 172.847,256.266 C176.342,248.644 178.775,240.428 180.22,231.93 C180.332,240.532 179.434,249.26 177.263,257.822 C175.207,265.959 171.988,273.926 167.627,281.366 C168.064,280.896 168.503,280.431 168.929,279.95 C174.244,273.943 178.681,266.998 182.066,259.457 C185.46,251.914 187.798,243.789 189.173,235.394 C189.354,243.879 188.557,252.502 186.496,260.975 C184.537,269.05 181.415,276.97 177.13,284.368 C177.575,283.887 178.023,283.409 178.457,282.916 C183.67,276.982 188.002,270.107 191.286,262.646 C194.578,255.183 196.82,247.148 198.125,238.858 C198.377,247.228 197.68,255.743 195.729,264.126 C193.869,272.139 190.844,280.013 186.635,287.368 C187.088,286.875 187.544,286.386 187.985,285.88 C193.098,280.022 197.324,273.216 200.504,265.835 C203.695,258.452 205.843,250.508 207.078,242.322 C207.401,250.577 206.803,258.982 204.96,267.275 C203.201,275.226 200.274,283.055 196.142,290.368 C196.604,289.866 197.067,289.364 197.515,288.846 C202.527,283.062 206.645,276.326 209.724,269.024 C212.812,261.72 214.864,253.869 216.033,245.787 C216.422,253.924 215.924,262.221 214.192,270.424 C212.534,278.311 209.708,286.095 205.652,293.368 C206.121,292.854 206.591,292.341 207.045,291.812 C211.957,286.102 215.966,279.434 218.943,272.213 C221.929,264.989 223.885,257.228 224.986,249.251 C225.444,257.272 225.046,265.458 223.425,273.571 C221.867,281.394 219.144,289.132 215.163,296.366 C215.641,295.842 216.117,295.318 216.578,294.777 C221.387,289.141 225.289,282.543 228.162,275.402 C231.044,268.256 232.906,260.588 233.938,252.715 C234.465,260.62 234.167,268.695 232.655,276.715 C231.201,284.473 228.583,292.169 224.678,299.363 C225.162,298.83 225.643,298.294 226.11,297.742 C230.817,292.18 234.61,285.652 237.379,278.589 C240.159,271.524 241.928,263.947 242.892,256.179 C243.486,263.966 243.286,271.93 241.888,279.858 C240.537,287.552 238.023,295.204 234.195,302.359 C234.686,301.817 235.171,301.271 235.643,300.708 C240.248,295.22 243.932,288.759 246.599,281.778 C249.274,274.791 250.947,267.306 251.845,259.644 C252.506,267.313 252.404,275.164 251.12,282.999 C249.873,290.627 247.466,298.234 243.716,305.354 C244.211,304.803 244.703,304.247 245.178,303.672 C249.681,298.26 253.255,291.867 255.816,284.965 C258.388,278.058 259.967,270.666 260.798,263.108 C261.525,270.66 261.522,278.396 260.35,286.137 C259.209,293.701 256.912,301.264 253.238,308.348 C253.739,307.789 254.234,307.222 254.713,306.637 C259.113,301.299 262.577,294.974 265.033,288.152 C267.501,281.325 268.987,274.026 269.752,266.571 C270.544,274.005 270.639,281.627 269.581,289.274 C268.546,296.77 266.361,304.291 262.764,311.34 C263.27,310.773 263.767,310.197 264.25,309.603 C268.546,304.339 271.899,298.081 274.251,291.339 C276.615,284.591 278.006,277.386 278.705,270.036 C279.564,277.352 279.754,284.856 278.81,292.408 C277.91,299.637 275.917,306.909 272.568,313.76 L272.75,313.791 C273.1,313.387 273.451,312.986 273.788,312.567 C277.981,307.378 281.221,301.187 283.468,294.525 C285.727,287.858 287.025,280.746 287.659,273.5 C288.582,280.698 288.87,288.086 288.039,295.54 C287.292,302.283 285.581,309.086 282.654,315.551 C282.845,315.586 283.034,315.622 283.222,315.657 L283.328,315.533 C287.417,310.417 290.542,304.292 292.683,297.712 C294.837,291.124 296.042,284.105 296.612,276.964 C297.599,284.042 297.982,291.314 297.268,298.669 C296.654,305.008 295.185,311.422 292.603,317.56 C292.881,317.622 293.162,317.684 293.431,317.745 C297.131,312.858 299.963,307.083 301.9,300.898 C303.948,294.389 305.061,287.464 305.566,280.428 C306.616,287.388 307.094,294.54 306.496,301.797 C305.987,307.981 304.65,314.257 302.215,320.284 C302.58,320.454 302.869,320.617 303.059,320.769 C303.502,321.122 305.486,322.177 308.742,323.81 C302.655,341.027 293.372,355.199 284.654,358.226 M71.274,112.199 C89.75,104.611 108.096,96.737 126.453,88.888 L153.926,76.979 L181.343,64.945 L195.048,58.918 L236.061,40.624 L288.893,16.713 L335.412,48.043 C351.5,58.748 367.539,69.527 383.705,80.123 C399.821,90.787 416.017,101.334 432.226,111.864 C433.792,112.874 435.36,113.882 436.927,114.892 C436.703,113.388 436.472,112 436.239,110.711 C435.512,110.194 434.788,109.675 434.062,109.158 C418.287,97.99 402.5,86.839 386.632,75.806 C370.813,64.703 354.867,53.786 338.973,42.792 L291.106,10.085 L289.542,9.016 L287.82,9.808 L233.399,34.782 L192.686,53.735 L179.146,60.125 L152.079,72.923 L125.067,85.847 C107.1,94.551 89.122,103.231 71.274,112.199 M425.872,94.687 C428.482,96.522 431.049,98.329 433.565,100.101 C432.034,95.887 430.757,94.972 430.501,94.828 L425.872,94.687 z M67.417,116.056 L63.56,107.377 C63.56,107.377 277.643,5.156 288.251,4.192 C294.454,3.628 360.973,49.21 415.164,87.173 L415.179,86.646 L417.106,86.707 L431.484,87.159 C433.903,87.482 436.031,88.907 437.81,91.396 C448.904,106.922 447.975,172.577 446.612,186.935 L446.886,186.935 C447.5,186.935 448.052,187.171 448.478,187.549 C448.976,187.991 449.296,188.628 449.296,189.346 C449.296,190.678 448.217,191.756 446.886,191.756 L427.599,191.756 C426.267,191.756 425.188,190.678 425.188,189.346 C425.188,188.015 426.267,186.935 427.599,186.935 L438.876,186.935 C439.333,183.728 439.746,175.158 439.777,164.253 L402.331,177.019 C395.652,155.169 388.367,132.678 385.797,129.595 C380.67,123.443 314.746,83.778 285.455,81.825 C257.362,79.949 214.068,98.705 179.282,113.773 L174.354,115.906 L153.298,159.598 L151.315,159.451 L67.417,116.056 z M447.083,118.454 C446.657,114.98 446.157,111.663 445.577,108.578 C469.258,125.318 485.942,137.271 485.942,137.271 L484.977,148.843 L449.336,160.994 C449.309,148.754 448.825,134.394 447.454,121.667 C458.636,128.856 469.838,136.015 481.121,143.058 C469.838,134.761 458.471,126.592 447.083,118.454"
       fill="#0B0B09"
       id="path2" />
  </g>
</svg>
