<?xml version="1.0" encoding="UTF-8" standalone="no"?>
<!-- Created with Inkscape (http://www.inkscape.org/) -->

<svg
   xmlns:dc="http://purl.org/dc/elements/1.1/"
   xmlns:cc="http://creativecommons.org/ns#"
   xmlns:rdf="http://www.w3.org/1999/02/22-rdf-syntax-ns#"
   xmlns:svg="http://www.w3.org/2000/svg"
   xmlns="http://www.w3.org/2000/svg"
   xmlns:sodipodi="http://sodipodi.sourceforge.net/DTD/sodipodi-0.dtd"
   xmlns:inkscape="http://www.inkscape.org/namespaces/inkscape"
   width="511.80002"
   height="135.56265"
   id="svg3070"
   version="1.1"
   inkscape:version="0.92.5 (2060ec1f9f, 2020-04-08)"
   sodipodi:docname="linkedIn-logo.svg">
  <defs
     id="defs3072" />
  <sodipodi:namedview
     id="base"
     pagecolor="#ffffff"
     bordercolor="#666666"
     borderopacity="1.0"
     inkscape:pageopacity="0.0"
     inkscape:pageshadow="2"
     inkscape:zoom="2.8"
     inkscape:cx="248.20361"
     inkscape:cy="23.043861"
     inkscape:document-units="px"
     inkscape:current-layer="layer1"
     showgrid="false"
     fit-margin-top="0"
     fit-margin-left="0"
     fit-margin-right="0"
     fit-margin-bottom="0"
     inkscape:window-width="2411"
     inkscape:window-height="1718"
     inkscape:window-x="1038"
     inkscape:window-y="312"
     inkscape:window-maximized="0" />
  <metadata
     id="metadata3075">
    <rdf:RDF>
      <cc:Work
         rdf:about="">
        <dc:format>image/svg+xml</dc:format>
        <dc:type
           rdf:resource="http://purl.org/dc/dcmitype/StillImage" />
        <dc:title></dc:title>
      </cc:Work>
    </rdf:RDF>
  </metadata>
  <g
     inkscape:label="Layer 1"
     inkscape:groupmode="layer"
     id="layer1"
     transform="translate(-202.3377,-336.43104)">
    <g
       transform="matrix(1.8113904,0,0,-1.8113904,145.90999,518.2892)"
       id="g3019">
      <path
         d="m 239.3298,95.036 c 0,2.96 2.4604,5.361 5.4956,5.361 h 63.376 c 3.0351,0 5.4956,-2.401 5.4956,-5.361 V 30.919 c 0,-2.961 -2.4605,-5.361 -5.4956,-5.361 h -63.376 c -3.0352,0 -5.4956,2.4 -5.4956,5.361 z"
         style="fill:#006699;fill-opacity:1;fill-rule:nonzero;stroke:none"
         id="path14"
         inkscape:connector-curvature="0" />
      <path
         d="M 31.1516,37.709 H 62.1872 V 47.898 H 42.383 V 86.772 H 31.1516 Z"
         style="fill:#000000;fill-opacity:1;fill-rule:evenodd;stroke:none"
         id="path16"
         inkscape:connector-curvature="0" />
      <path
         d="M 77.9001,37.709 V 71.502 H 66.6677 V 37.709 Z m -5.6162,38.407 c 3.917,0 6.355,2.595 6.355,5.84 -0.073,3.315 -2.438,5.837 -6.2803,5.837 -3.8428,0 -6.355,-2.522 -6.355,-5.837 0,-3.245 2.4375,-5.84 6.207,-5.84 h 0.073 z"
         style="fill:#000000;fill-opacity:1;fill-rule:evenodd;stroke:none"
         id="path18"
         inkscape:connector-curvature="0" />
      <path
         d="m 83.1154,37.709 h 11.2325 v 18.872 c 0,1.01 0.073,2.019 0.3701,2.741 0.8115,2.017 2.6596,4.107 5.7627,4.107 4.0649,0 5.6909,-3.1 5.6909,-7.64 v -18.08 h 11.2314 v 19.377 c 0,10.38 -5.542,15.21 -12.9321,15.21 -6.0591,0 -8.7197,-3.387 -10.1978,-5.694 h 0.075 v 4.9 H 83.1156 c 0.1475,-3.171 0,-33.793 0,-33.793 z"
         style="fill:#000000;fill-opacity:1;fill-rule:evenodd;stroke:none"
         id="path20"
         inkscape:connector-curvature="0" />
      <path
         d="M 133.2487,86.772 H 122.0158 V 37.709 h 11.2329 v 10.956 l 2.8072,3.534 8.7939,-14.49 h 13.8179 l -14.7783,20.977 12.9316,14.272 h -13.5225 c 0,0 -9.2368,-12.769 -10.0498,-14.283 z"
         style="fill:#000000;fill-opacity:1;fill-rule:evenodd;stroke:none"
         id="path22"
         inkscape:connector-curvature="0" />
      <path
         d="m 188.7062,51.805 c 0.1475,0.868 0.3697,2.533 0.3697,4.415 0,8.736 -4.4346,17.604 -16.1094,17.604 -12.4888,0 -18.2524,-9.877 -18.2524,-18.835 0,-11.08 7.02,-18 19.2866,-18 4.8774,0 9.3843,0.72 13.0796,2.234 l -1.4785,7.418 c -3.0293,-1.005 -6.1329,-1.507 -9.9751,-1.507 -5.2466,0 -9.8277,2.153 -10.1978,6.743 l 23.2773,-0.07 z m -23.3505,7.599 c 0.2954,2.884 2.2168,7.138 7.02,7.138 5.0976,0 6.2807,-4.543 6.2807,-7.138 z"
         style="fill:#000000;fill-opacity:1;fill-rule:evenodd;stroke:none"
         id="path24"
         inkscape:connector-curvature="0" />
      <path
         d="M 216.801,86.772 V 69.788 h -0.1475 c -1.626,2.377 -5.0259,3.963 -9.5322,3.963 -8.6465,0 -16.2573,-6.92 -16.1841,-18.741 0,-10.958 6.8726,-18.094 15.4443,-18.094 4.6553,0 9.0889,2.019 11.3057,5.912 h 0.2222 l 0.4433,-5.119 h 9.9766 c -0.148,2.379 -0.2969,6.488 -0.2969,10.524 v 38.539 z m 0,-33.421 c 0,-0.864 -0.074,-1.73 -0.2222,-2.45 -0.6641,-3.1 -3.3252,-5.262 -6.5757,-5.262 -4.6557,0 -7.6855,3.748 -7.6855,9.659 0,5.55 2.5869,10.019 7.7588,10.019 3.4726,0 5.9116,-2.378 6.5771,-5.333 0.1475,-0.65 0.1475,-1.371 0.1475,-2.019 z"
         style="fill:#000000;fill-opacity:1;fill-rule:evenodd;stroke:none"
         id="path26"
         inkscape:connector-curvature="0" />
      <path
         d="M 261.8728,37.749 V 71.543 H 250.6403 V 37.749 Z m -5.6163,38.408 c 3.917,0 6.355,2.595 6.355,5.838 -0.073,3.316 -2.438,5.839 -6.2807,5.839 -3.8423,0 -6.3545,-2.523 -6.3545,-5.839 0,-3.243 2.4375,-5.838 6.207,-5.838 h 0.073 z"
         style="fill:#ffffff;fill-opacity:1;fill-rule:evenodd;stroke:none"
         id="path28"
         inkscape:connector-curvature="0" />
      <path
         d="m 268.0881,37.749 h 11.2324 v 18.872 c 0,1.01 0.073,2.019 0.3696,2.741 0.812,2.018 2.6602,4.108 5.7632,4.108 4.0645,0 5.6904,-3.099 5.6904,-7.642 V 37.749 h 11.2315 v 19.377 c 0,10.38 -5.5415,15.21 -12.9316,15.21 -6.0596,0 -8.7198,-3.387 -10.1978,-5.694 h 0.075 v 4.901 h -11.2324 c 0.1474,-3.171 0,-33.794 0,-33.794 z"
         style="fill:#ffffff;fill-opacity:1;fill-rule:evenodd;stroke:none"
         id="path30"
         inkscape:connector-curvature="0" />
    </g>
  </g>
</svg>
