<?xml version="1.0" encoding="UTF-8" standalone="no"?>
<!-- Generator: Adobe Illustrator 16.0.0, SVG Export Plug-In . SVG Version: 6.00 Build 0)  -->

<svg
   xmlns:dc="http://purl.org/dc/elements/1.1/"
   xmlns:cc="http://creativecommons.org/ns#"
   xmlns:rdf="http://www.w3.org/1999/02/22-rdf-syntax-ns#"
   xmlns:svg="http://www.w3.org/2000/svg"
   xmlns="http://www.w3.org/2000/svg"
   xmlns:sodipodi="http://sodipodi.sourceforge.net/DTD/sodipodi-0.dtd"
   xmlns:inkscape="http://www.inkscape.org/namespaces/inkscape"
   version="1.1"
   id="Capa_1"
   x="0px"
   y="0px"
   width="512"
   height="512"
   viewBox="0 0 512 512"
   xml:space="preserve"
   sodipodi:docname="researchgate-logo-letters.svg"
   inkscape:version="0.92.5 (2060ec1f9f, 2020-04-08)"><metadata
   id="metadata45"><rdf:RDF><cc:Work
       rdf:about=""><dc:format>image/svg+xml</dc:format><dc:type
         rdf:resource="http://purl.org/dc/dcmitype/StillImage" /><dc:title></dc:title></cc:Work></rdf:RDF></metadata><defs
   id="defs43" /><sodipodi:namedview
   pagecolor="#ffffff"
   bordercolor="#666666"
   borderopacity="1"
   objecttolerance="10"
   gridtolerance="10"
   guidetolerance="10"
   inkscape:pageopacity="0"
   inkscape:pageshadow="2"
   inkscape:window-width="2503"
   inkscape:window-height="1687"
   id="namedview41"
   showgrid="false"
   fit-margin-top="0"
   fit-margin-left="0"
   fit-margin-right="0"
   fit-margin-bottom="0"
   inkscape:zoom="1.2071611"
   inkscape:cx="258.77768"
   inkscape:cy="218.50736"
   inkscape:window-x="1057"
   inkscape:window-y="307"
   inkscape:window-maximized="0"
   inkscape:current-layer="Capa_1" />
<g
   id="g8"
   transform="scale(5.2378517)">
	<g
   id="g6">
		<path
   d="M 28.781,32.006 H 24.189 V 45.85 h 4.051 c 2.342,0 4.143,-0.549 5.404,-1.646 1.261,-1.098 1.891,-2.945 1.891,-5.545 0,-4.434 -2.251,-6.653 -6.754,-6.653 z"
   id="path2"
   inkscape:connector-curvature="0" />
		<path
   d="M 48.875,0 C 21.883,0 0,21.883 0,48.875 0,75.867 21.883,97.75 48.875,97.75 75.867,97.75 97.75,75.867 97.75,48.875 97.75,21.883 75.867,0 48.875,0 Z M 47.153,72.867 H 36.495 C 35.993,72.197 35.674,71.424 35.539,70.549 35.401,69.676 35.31,68.77 35.266,67.828 l -0.267,-9.207 c -0.09,-1.883 -0.557,-3.359 -1.401,-4.436 -0.845,-1.074 -2.27,-1.613 -4.271,-1.613 H 24.189 V 72.867 H 14.461 V 24.883 h 17.967 c 4.053,0 7.203,1.018 9.456,3.057 2.251,2.039 3.377,5.143 3.377,9.309 0,3.225 -0.653,5.857 -1.959,7.896 -1.306,2.039 -3.332,3.35 -6.079,3.934 v 0.133 c 1.666,0.226 2.994,0.64 3.985,1.244 0.99,0.604 1.757,1.479 2.296,2.621 0.541,1.143 0.912,2.588 1.114,4.336 0.204,1.746 0.327,3.896 0.372,6.451 0.045,2.553 0.191,4.502 0.439,5.846 0.247,1.347 0.821,2.265 1.723,2.756 z m 36.135,0 h -7.16 v -4.434 h -0.135 c -1.173,1.881 -2.578,3.248 -4.222,4.098 -1.645,0.852 -3.614,1.277 -5.91,1.277 -2.971,0 -5.393,-0.55 -7.262,-1.646 -1.869,-1.098 -3.332,-2.721 -4.389,-4.871 -1.061,-2.15 -1.77,-4.807 -2.129,-7.965 -0.361,-3.16 -0.54,-6.82 -0.54,-10.988 0,-4.033 0.259,-7.572 0.776,-10.621 0.518,-3.045 1.406,-5.588 2.668,-7.627 1.261,-2.037 2.928,-3.572 4.998,-4.604 2.07,-1.029 4.66,-1.545 7.768,-1.545 5.312,0 9.141,1.309 11.482,3.932 2.342,2.621 3.512,6.373 3.512,11.258 h -9.32 c 0,-0.852 -0.102,-1.76 -0.305,-2.723 -0.201,-0.963 -0.529,-1.836 -0.979,-2.621 -0.451,-0.783 -1.024,-1.434 -1.723,-1.951 -0.697,-0.512 -1.543,-0.771 -2.531,-0.771 -2.344,0 -4.031,1.299 -5.066,3.898 -1.036,2.599 -1.553,6.9 -1.553,12.904 0,2.912 0.09,5.523 0.269,7.83 0.18,2.309 0.509,4.279 0.979,5.914 0.474,1.635 1.148,2.889 2.025,3.764 0.88,0.873 2.016,1.311 3.412,1.311 0.584,0 1.227,-0.158 1.924,-0.473 0.698,-0.311 1.352,-0.781 1.959,-1.41 0.607,-0.627 1.114,-1.42 1.52,-2.385 0.406,-0.963 0.608,-2.094 0.608,-3.395 v -4.906 h -6.417 v -7.125 h 15.738 z"
   id="path4"
   inkscape:connector-curvature="0" />
	</g>
</g>
<g
   id="g10"
   transform="scale(5.2378517)">
</g>
<g
   id="g12"
   transform="scale(5.2378517)">
</g>
<g
   id="g14"
   transform="scale(5.2378517)">
</g>
<g
   id="g16"
   transform="scale(5.2378517)">
</g>
<g
   id="g18"
   transform="scale(5.2378517)">
</g>
<g
   id="g20"
   transform="scale(5.2378517)">
</g>
<g
   id="g22"
   transform="scale(5.2378517)">
</g>
<g
   id="g24"
   transform="scale(5.2378517)">
</g>
<g
   id="g26"
   transform="scale(5.2378517)">
</g>
<g
   id="g28"
   transform="scale(5.2378517)">
</g>
<g
   id="g30"
   transform="scale(5.2378517)">
</g>
<g
   id="g32"
   transform="scale(5.2378517)">
</g>
<g
   id="g34"
   transform="scale(5.2378517)">
</g>
<g
   id="g36"
   transform="scale(5.2378517)">
</g>
<g
   id="g38"
   transform="scale(5.2378517)">
</g>
</svg>