<?xml version="1.0" encoding="UTF-8" standalone="no"?>
<!-- Created with Inkscape (http://www.inkscape.org/) -->

<svg
   xmlns:dc="http://purl.org/dc/elements/1.1/"
   xmlns:cc="http://creativecommons.org/ns#"
   xmlns:rdf="http://www.w3.org/1999/02/22-rdf-syntax-ns#"
   xmlns:svg="http://www.w3.org/2000/svg"
   xmlns="http://www.w3.org/2000/svg"
   xmlns:sodipodi="http://sodipodi.sourceforge.net/DTD/sodipodi-0.dtd"
   xmlns:inkscape="http://www.inkscape.org/namespaces/inkscape"
   version="1.1"
   id="svg2"
   xml:space="preserve"
   width="512"
   height="358.40164"
   viewBox="0 0 512 358.40163"
   sodipodi:docname="youtube-logo.svg"
   inkscape:version="0.92.5 (2060ec1f9f, 2020-04-08)"><metadata
     id="metadata8"><rdf:RDF><cc:Work
         rdf:about=""><dc:format>image/svg+xml</dc:format><dc:type
           rdf:resource="http://purl.org/dc/dcmitype/StillImage" /><dc:title></dc:title></cc:Work></rdf:RDF></metadata><defs
     id="defs6" /><sodipodi:namedview
     pagecolor="#ffffff"
     bordercolor="#666666"
     borderopacity="1"
     objecttolerance="10"
     gridtolerance="10"
     guidetolerance="10"
     inkscape:pageopacity="0"
     inkscape:pageshadow="2"
     inkscape:window-width="2560"
     inkscape:window-height="1756"
     id="namedview4"
     showgrid="false"
     fit-margin-top="0"
     fit-margin-left="0"
     fit-margin-right="0"
     fit-margin-bottom="0"
     inkscape:zoom="1.8429066"
     inkscape:cx="346.88396"
     inkscape:cy="220.076"
     inkscape:window-x="1072"
     inkscape:window-y="273"
     inkscape:window-maximized="0"
     inkscape:current-layer="g10" /><g
     id="g10"
     inkscape:groupmode="layer"
     inkscape:label="ink_ext_XXXXXX"
     transform="matrix(1.3333333,0,0,-1.3333333,0,358.40112)"><g
       id="g851"
       transform="matrix(3.1608841,0,0,3.1608841,0,8.4409537e-4)"><path
         d="m 118.946,71.7605 c -1.397,5.2266 -5.513,9.3434 -10.74,10.7403 -9.4744,2.5387 -47.4638,2.5387 -47.4638,2.5387 0,0 -37.9891,0 -47.4633,-2.5387 C 8.05234,81.1039 3.93555,76.9871 2.53867,71.7605 0,62.2863 0,42.5199 0,42.5199 c 0,0 0,-19.7672 2.53867,-29.241 C 3.93555,8.05273 8.05234,3.93555 13.2789,2.53906 22.7531,-3.90625e-4 60.7422,-3.90625e-4 60.7422,-3.90625e-4 c 0,0 37.9894,0 47.4638,2.539450625 5.227,1.39649 9.343,5.51367 10.74,10.73984 2.539,9.4738 2.539,29.241 2.539,29.241 0,0 0,19.7664 -2.539,29.2406"
         style="fill:#ed1d24;fill-opacity:1;fill-rule:nonzero;stroke:none;stroke-width:0.1"
         id="path14"
         inkscape:connector-curvature="0" /><path
         d="M 48.5938,24.2969 80.1555,42.5195 48.5938,60.7426 Z"
         style="fill:#ffffff;fill-opacity:1;fill-rule:nonzero;stroke:none;stroke-width:0.1"
         id="path16"
         inkscape:connector-curvature="0" /></g></g></svg>