<?xml version="1.0" encoding="iso-8859-1"?>
<!-- Generator: Adobe Illustrator 18.1.1, SVG Export Plug-In . SVG Version: 6.00 Build 0)  -->
<svg version="1.1" id="Capa_1" xmlns="http://www.w3.org/2000/svg" xmlns:xlink="http://www.w3.org/1999/xlink" x="0px" y="0px"
	 viewBox="0 0 267.998 267.998" style="enable-background:new 0 0 267.998 267.998;" xml:space="preserve">
<g>
	<g>
		<path style="fill:#030104;" d="M243.378,112.894c0-11.622-21.626-21.782-53.851-27.296l23.658-77.62
			c0.83-2.717-0.7-5.593-3.417-6.419l-4.38-1.333c-2.715-0.831-5.585,0.701-6.415,3.417l-24.341,79.834
			c-12.562-1.456-26.27-2.26-40.627-2.26c-60.411,0-109.384,14.187-109.384,31.678c0,6.328,6.408,12.232,17.47,17.178l-0.153,0.33
			c-20.466,27.539-9.843,68.85-9.843,68.85c3.238,13.608,10.943,23.73,20.83,31.254h-0.142v16.004
			c-4.149-0.914-7.909,0.604-8.516,3.537c-0.638,3.049,2.376,6.46,6.728,7.62c4.344,1.157,8.385-0.368,9.017-3.417l0.056-0.352
			l0.202-18.488c21.307,12.53,49.031,15.752,65.63,16.482l0.161,12.301c0.632,3.05,4.671,4.574,9.016,3.417
			c4.351-1.159,7.366-4.571,6.728-7.62c-0.605-2.934-4.367-4.451-8.516-3.537v-4.369c13.895-0.104,45.322-1.905,69.779-14.936
			l0.184,16.75l0.057,0.352c0.631,3.049,4.671,4.574,9.016,3.417c4.351-1.16,7.365-4.571,6.727-7.62
			c-0.606-2.934-4.366-4.451-8.516-3.537v-13.865c11.305-7.712,20.238-18.451,23.795-33.393c0,0,10.564-41.088-9.672-68.627h0.004
			C236.475,125.56,243.378,119.459,243.378,112.894z M134.006,136.303c-50.637,0-91.678-10.918-91.678-24.398
			c0-13.467,41.041-24.385,91.678-24.385c13.83,0,26.945,0.817,38.703,2.276l-1.122,3.674h-0.001
			c-8.16,0.798-14.539,7.683-14.539,16.055c0,0.666,0.053,1.324,0.129,1.968h32.002c0.08-0.644,0.133-1.302,0.133-1.968
			c0-4.005-1.465-7.67-3.881-10.49l2.11-6.925c23.098,4.425,38.133,11.643,38.133,19.795
			C225.673,125.384,184.632,136.303,134.006,136.303z"/>
		<path style="fill:#030104;" d="M99.498,113.853c-6.299,0-11.408,5.112-11.408,11.412c0,0.469,0.038,0.933,0.094,1.389h22.629
			c0.059-0.456,0.097-0.92,0.097-1.389C110.91,118.965,105.802,113.853,99.498,113.853z"/>
		<path style="fill:#030104;" d="M123.695,94.488c-4.562,0-8.262,3.698-8.262,8.262c0,0.342,0.028,0.677,0.07,1.006h16.388
			c0.041-0.329,0.066-0.664,0.066-1.006C131.957,98.186,128.26,94.488,123.695,94.488z"/>
	</g>
</g>
<g>
</g>
<g>
</g>
<g>
</g>
<g>
</g>
<g>
</g>
<g>
</g>
<g>
</g>
<g>
</g>
<g>
</g>
<g>
</g>
<g>
</g>
<g>
</g>
<g>
</g>
<g>
</g>
<g>
</g>
</svg>
