<svg xmlns="http://www.w3.org/2000/svg">
<defs>
<font
   id="FontID0"
   horiz-adv-x="666"
   font-variant="normal"
   font-style="normal"
   font-weight="400"
   horiz-origin-x="0"
   horiz-origin-y="0"
   vert-origin-x="45"
   vert-origin-y="90"
   vert-adv-y="90">
	<font-face
   font-family="Arial"
   id="font-face2">
	</font-face>
   <missing-glyph
   id="missing-glyph6"><path
     d="M0 0z"
     id="path4" /></missing-glyph>
   <glyph
   unicode="D"
   horiz-adv-x="722"
   id="glyph10"><path
     d="M77.0004 0l0 715.99 246.669 0c55.6629,0 98.1575,-3.32431 127.509,-10.1533 40.9999,-9.50908 75.9954,-26.6718 104.986,-51.3336 37.8302,-32.0062 65.9966,-72.671 84.6798,-122.33 18.812,-49.6843 28.1665,-106.507 28.1665,-170.339 0,-54.3229 -6.33939,-102.513 -19.0182,-144.492 -12.653,-42.0049 -28.9911,-76.8458 -48.8339,-104.342 -19.9974,-27.4965 -41.6699,-49.1689 -65.3266,-64.837 -23.5021,-15.8227 -52.0036,-27.8315 -85.3241,-36.0005 -33.5008,-8.16905 -71.8464,-12.1634 -115.166,-12.1634l-258.343 0zm94.9878 84.0098l152.687 0c47.1589,0 84.1644,4.32934 110.991,13.1684 26.8264,8.8133 48.1639,21.1571 64.167,37.1602 22.3425,22.4971 39.8402,52.8282 52.3386,90.8388 12.4984,37.9848 18.8378,83.984 18.8378,138.152 0,75.0161 -12.3438,132.663 -36.8509,172.993 -24.4814,40.3556 -54.3229,67.3367 -89.4988,81.0205 -25.3318,9.81832 -66.1513,14.6631 -122.484,14.6631l-150.187 0 0 -547.996z"
     id="path8" /></glyph>
   <glyph
   unicode="3"
   horiz-adv-x="556"
   id="glyph14"><path
     d="M42.0049 190.001l88.0041 12.0088c10.1533,-50.0193 27.1614,-86.0198 51.3336,-108.002 24.1464,-22.0075 53.8333,-33.0112 88.9834,-33.0112 41.6699,0 76.8458,14.3281 105.167,43.0099 28.3469,28.6561 42.4945,64.167 42.4945,106.481 0,40.3556 -13.1426,73.6761 -39.6598,100.013 -26.3368,26.1564 -59.8376,39.3248 -100.657,39.3248 -16.6731,0 -37.3405,-3.32431 -62.1827,-9.81832l9.84409 77.0004c5.82399,-0.670017 10.6687,-1.00503 14.1734,-1.00503 37.6498,0 71.331,9.81832 101.508,29.3261 29.9961,19.5078 44.9942,49.5039 44.9942,90.0142 0,32.1608 -11.0037,58.8326 -32.8308,79.9897 -21.8529,21.1571 -50.0193,31.6712 -84.4994,31.6712 -34.3512,0 -62.8527,-10.8491 -85.6848,-32.4958 -22.8321,-21.6725 -37.4952,-54.1683 -43.9892,-97.5132l-88.0041 16.0031c10.8233,59.013 35.1759,104.832 73.3411,137.328 37.9848,32.4958 85.5044,48.6793 142.172,48.6793 38.9898,0 74.9903,-8.34944 107.821,-25.1772 33.0112,-16.6731 58.1626,-39.5052 75.5057,-68.3159 17.4977,-29.0169 26.1564,-59.683 26.1564,-92.1788 0,-30.8208 -8.32367,-58.8326 -24.8164,-84.1644 -16.6731,-25.3318 -41.3349,-45.5096 -73.8565,-60.5077 42.3399,-9.6637 75.1707,-29.9961 98.6729,-60.8169 23.3475,-30.6662 34.9955,-69.3467 34.9955,-115.501 0,-62.5177 -22.8321,-115.681 -68.3159,-159.181 -45.6642,-43.4995 -103.337,-65.172 -173.019,-65.172 -62.827,0 -114.985,18.8378 -156.5,56.3329 -41.6441,37.5209 -65.3266,86.0198 -71.1506,145.677z"
     id="path12" /></glyph>
   <glyph
   unicode="f"
   horiz-adv-x="277"
   id="glyph18"><path
     d="M86.9991 0l0 450.999 -78.0054 0 0 68.0067 78.0054 0 0 54.9929c0,34.8409 2.98931,60.6623 9.17408,77.49 8.50406,22.6775 23.1671,41.1803 44.5046,55.3537 21.1571,14.1477 50.9986,21.1571 89.3184,21.1571 24.8422,0 52.1582,-2.98931 82.1801,-8.83907l-13.1684 -77.0004c-18.3482,3.16969 -35.5109,4.84474 -51.849,4.84474 -26.6461,0 -45.4838,-5.66937 -56.668,-17.0081 -11.0037,-11.3387 -16.4927,-32.4958 -16.4927,-63.497l0 -47.4939 100.992 0 0 -68.0067 -99.9871 0 0 -450.999 -88.0041 0z"
     id="path16" /></glyph>
   <glyph
   unicode="w"
   horiz-adv-x="722"
   id="glyph22"><path
     d="M159.335 0l-156.835 519.005 91.9985 0 82.8244 -299.497 29.3519 -111.506c1.15964,5.48898 10.1533,41.1545 26.8264,106.997l82.1544 304.007 90.1688 0 78.1858 -301.327 25.4864 -98.8532 29.8415 100.168 89.6534 300.013 85.5044 0 -162.84 -519.005 -90.9934 0 -82.3348 310.501 -20.8221 88.8288 -105.012 -399.33 -93.1581 0z"
     id="path20" /></glyph>
   <glyph
   unicode="U"
   horiz-adv-x="722"
   id="glyph26"><path
     d="M546.006 716.002l94.9941 0 0 -413.504c0,-72.0056 -8.16468,-129.158 -24.3348,-171.502 -16.3294,-42.1697 -45.6585,-76.667 -88.002,-103.159 -42.5027,-26.5063 -97.9907,-39.839 -167,-39.839 -66.8375,0 -121.66,11.4943 -164.162,34.671 -42.6619,23.1622 -73.0044,56.5013 -91.1723,100.336 -18.1679,43.8345 -27.3314,103.665 -27.3314,179.493l0 413.504 95.0085 0 0 -413.33c0,-62.1761 5.83398,-108.168 17.3282,-137.511 11.4943,-29.4884 31.1677,-52.3321 59.3387,-68.1548 27.9973,-16.0109 62.3209,-24.0019 102.826,-24.0019 69.3274,0 118.837,15.8227 148.34,47.3233 29.4884,31.6743 44.1675,92.3449 44.1675,182.345l0 413.33z"
     id="path24" /></glyph>
   <glyph
   unicode="A"
   horiz-adv-x="667"
   id="glyph30"><path
     d="M-1.49465 0l274.655 715.99 104.162 0 291.509 -715.99 -107.821 0 -82.8501 217.008 -301.482 0 -77.6704 -217.008 -100.503 0zm206.004 294.009l243.989 0 -74.6553 198.48c-22.5229,60.353 -39.5052,110.166 -51.3336,149.517 -9.84409,-46.6692 -23.0125,-92.5139 -39.5052,-137.843l-78.495 -210.153z"
     id="path28" /></glyph>
   <glyph
   unicode="0"
   horiz-adv-x="556"
   id="glyph34"><path
     d="M42.0049 353.331c0,84.4994 8.65868,152.841 26.0018,204.51 17.4977,51.8232 43.3192,91.6634 77.6704,119.495 34.1451,27.8315 77.3354,41.6699 129.313,41.6699 38.3456,0 72.001,-7.67942 101.173,-23.1671 28.9911,-15.5135 53.0086,-37.8302 71.666,-67.0017 18.6832,-28.9911 33.3462,-64.502 44.0149,-106.327 10.8233,-41.8503 16.1577,-98.3378 16.1577,-169.179 0,-84.0098 -8.65868,-151.991 -25.8472,-203.659 -17.1627,-51.849 -42.9842,-91.6634 -77.3096,-119.675 -34.1709,-27.9861 -77.5158,-42.0049 -129.854,-42.0049 -68.8313,0 -123,24.5072 -162.324,73.6761 -47.1589,59.9923 -70.661,157.17 -70.661,291.663zm89.9884 -0.335008c0,-117.82 13.6838,-196.16 41.1803,-234.841 27.4965,-38.8094 61.4869,-58.1626 101.817,-58.1626 40.3556,0 74.3461,19.5078 101.843,58.343 27.4965,38.9898 41.1545,117.176 41.1545,234.66 0,117.846 -13.658,196.16 -41.1545,234.841 -27.3418,38.8352 -61.6673,58.1626 -102.822,58.1626 -40.3556,0 -72.671,-17.1627 -96.8432,-51.3336 -30.1765,-43.4995 -45.1746,-124.159 -45.1746,-241.67z"
     id="path32" /></glyph>
   <glyph
   unicode="t"
   horiz-adv-x="277"
   id="glyph38"><path
     d="M257.003 78.495l12.0088 -77.6704c-24.6875,-5.15398 -46.8496,-7.83404 -66.177,-7.83404 -31.8258,0 -56.5133,4.99936 -74.1657,15.1785 -17.4977,10.1533 -29.8415,23.3217 -37.0055,39.8402 -7.16403,16.4927 -10.6687,51.1532 -10.6687,103.981l0 299.008 -64.9916 0 0 68.0067 64.9916 0 0 128.334 88.0041 52.8282 0 -181.162 88.0041 0 0 -68.0067 -88.0041 0 0 -304.007c0,-25.1514 1.49465,-41.3349 4.66435,-48.4989 3.01508,-7.16403 8.01443,-12.8334 14.9981,-17.1627 7.00941,-4.17472 17.0081,-6.33939 29.9961,-6.33939 9.6637,0 22.4971,1.18541 38.3456,3.5047z"
     id="path36" /></glyph>
   <glyph
   unicode="c"
   horiz-adv-x="500"
   id="glyph42"><path
     d="M404.999 190.001l85.9941 -12.0088c-9.48331,-59.1676 -33.5008,-105.321 -72.336,-138.822 -38.8352,-33.5008 -86.6641,-50.1739 -143.152,-50.1739 -70.8414,0 -127.844,23.1671 -170.829,69.5014 -43.1645,46.3342 -64.6824,112.666 -64.6824,198.995 0,55.9979 9.32869,104.832 27.8315,146.837 18.5028,41.8245 46.6692,73.3411 84.6798,94.1631 37.8302,21.0024 78.9847,31.5166 123.67,31.5166 56.1526,0 102.332,-14.1734 137.998,-42.6749 35.8201,-28.5015 58.8326,-69.0117 68.8313,-121.325l-85.0148 -13.0138c-8.16905,34.8409 -22.4971,60.9973 -43.3192,78.6754 -20.6674,17.4977 -45.6642,26.3368 -75.0161,26.3368 -44.3242,0 -80.3247,-15.8485 -108.156,-47.5196 -27.6768,-31.8258 -41.4895,-81.8194 -41.4895,-150.496 0,-69.656 13.323,-120.165 39.9948,-151.656 26.8264,-31.4908 61.6673,-47.3393 104.497,-47.3393 34.6605,0 63.497,10.5141 86.5095,31.6712 23.1671,21.0024 37.8302,53.4983 43.9892,97.3328z"
     id="path40" /></glyph>
   <glyph
   unicode="R"
   horiz-adv-x="722"
   id="glyph46"><path
     d="M78.9977 0l0 716.002 317.337 0c63.8264,0 112.337,-6.4999 145.502,-19.3405 33.1654,-12.8261 59.6572,-35.4961 79.4899,-67.9956 19.8471,-32.4995 29.6766,-68.5023 29.6766,-107.835 0,-50.8266 -16.5031,-93.6622 -49.3355,-128.492 -32.8325,-34.8447 -83.4998,-56.8343 -152.161,-66.3453 25.16,-12.0009 44.1675,-23.9874 57.1673,-35.6553 27.6644,-25.3337 53.8232,-57.1673 78.3317,-95.3415l123.831 -194.997 -118.33 0 -94.6756 149.005c-27.4907,43.1541 -50.3344,76.001 -68.1693,98.8303 -17.9942,22.8293 -33.9906,38.6664 -48.1629,47.83 -13.9987,9.00431 -28.504,15.3305 -43.1686,19.0075 -10.6691,2.15698 -28.1566,3.32957 -52.6651,3.32957l-109.659 0 0 -318.003 -95.0085 0zm95.0085 399.997l203.321 0c43.3423,0 76.9999,4.50216 101.335,13.5065 24.3348,8.8306 42.8356,23.1622 55.3432,42.9949 12.6668,19.6734 18.993,40.9971 18.993,64.1738 0,33.8313 -12.1602,61.8287 -36.6687,83.6591 -24.4941,21.8304 -63.1605,32.6732 -115.999,32.6732l-226.324 0 0 -237.007z"
     id="path44" /></glyph>
   <glyph
   unicode="-"
   horiz-adv-x="332"
   id="glyph50"><path
     d="M31.0012 214.998l0 88.0041 272.001 0 0 -88.0041 -272.001 0z"
     id="path48" /></glyph>
   <glyph
   unicode="O"
   horiz-adv-x="777"
   id="glyph54"><path
     d="M48.0037 348.505c0,118.663 31.9928,211.659 95.8337,278.83 63.8264,67.1704 146.168,100.669 247.155,100.669 66.1716,0 125.67,-15.8372 178.841,-47.3378 52.9981,-31.5006 93.503,-75.4944 121.327,-131.996 27.8381,-56.3421 41.8368,-120.342 41.8368,-191.841 0,-72.4978 -14.6646,-137.497 -43.9937,-194.664 -29.3436,-57.3265 -70.833,-100.669 -124.497,-129.998 -53.8377,-29.5029 -111.845,-44.1675 -174.006,-44.1675 -67.5034,0 -127.667,16.3294 -180.839,48.8289 -52.9981,32.4995 -93.3293,76.8407 -120.661,133.168 -27.3314,56.1684 -40.9971,115.666 -40.9971,178.508zm97.9907 -1.66478c0,-86.1779 23.1767,-154 69.5011,-203.509 46.3389,-49.4948 104.505,-74.3363 174.498,-74.3363 71.3396,0 129.839,25.0007 176.004,75.0022 46.006,50.0014 69.0089,121.008 69.0089,213.006 0,58.1661 -9.84394,108.993 -29.5029,152.335 -19.6734,43.3278 -48.5104,76.9999 -86.3372,100.828 -38.0005,23.8281 -80.5032,35.8291 -127.667,35.8291 -66.9967,0 -124.671,-22.9885 -172.993,-68.9945 -48.3367,-46.006 -72.5122,-122.673 -72.5122,-230.16z"
     id="path52" /></glyph>
   <glyph
   unicode="L"
   horiz-adv-x="556"
   id="glyph58"><path
     d="M73.0061 0l0 715.99 94.9878 0 0 -631.98 352.016 0 0 -84.0098 -447.004 0z"
     id="path56" /></glyph>
   <glyph
   unicode="n"
   horiz-adv-x="556"
   id="glyph62"><path
     d="M65.9966 0l0 519.005 79.0104 0 0 -73.6761c37.9848,56.5133 93.0035,84.6798 164.824,84.6798 31.3362,0 59.9923,-5.66937 86.1745,-16.8535 26.1564,-11.1584 45.8188,-25.976 58.8326,-44.1438 12.988,-18.1678 22.1621,-39.8402 27.3161,-64.837 3.16969,-16.3381 4.84474,-44.8396 4.84474,-85.5044l0 -318.67 -88.0041 0 0 315.346c0,35.8201 -3.32431,62.6466 -10.1533,80.3247 -6.82902,17.6524 -19.0182,31.8258 -36.3355,42.4945 -17.3431,10.5141 -37.8302,15.8227 -61.1777,15.8227 -37.3405,0 -69.5014,-11.8284 -96.6628,-35.6655 -27.1614,-23.6567 -40.6649,-68.8313 -40.6649,-135.163l0 -283.159 -88.0041 0z"
     id="path60" /></glyph>
   <glyph
   unicode="'"
   horiz-adv-x="191"
   id="glyph66"><path
     d="M67.4913 463.007l-22.4971 133.488 0 119.495 100.013 0 0 -119.495 -23.5021 -133.488 -54.0137 0z"
     id="path64" /></glyph>
   <glyph
   unicode="k"
   horiz-adv-x="500"
   id="glyph70"><path
     d="M66.3317 0l0 715.99 88.0041 0 0 -407.834 207.989 210.849 113.671 0 -197.99 -192.836 217.987 -326.169 -108.337 0 -172.323 265.172 -60.9973 -59.348 0 -205.824 -88.0041 0z"
     id="path68" /></glyph>
   <glyph
   unicode="I"
   horiz-adv-x="277"
   id="glyph74"><path
     d="M92.9963 0l0 716.002 95.0085 0 0 -716.002 -95.0085 0z"
     id="path72" /></glyph>
   <glyph
   unicode="F"
   horiz-adv-x="610"
   id="glyph78"><path
     d="M81.9997 0l0 715.99 483.005 0 0 -83.984 -388.017 0 0 -223.012 336.013 0 0 -83.984 -336.013 0 0 -325.01 -94.9878 0z"
     id="path76" /></glyph>
   <glyph
   unicode="y"
   horiz-adv-x="500"
   id="glyph82"><path
     d="M62.0023 -199.51l-9.99871 81.3555c19.3274,-5.17974 36.0005,-7.83404 50.3286,-7.83404 19.6624,0 35.3305,3.32431 47.0043,9.81832 11.8284,6.49401 21.4921,15.6681 28.9911,27.3418 5.51475,8.83907 14.5084,30.6662 26.8264,65.6616 1.67504,4.84474 4.17472,12.0088 7.83404,21.4921l-196.985 520.68 94.0085 0 108.311 -299.678c14.1734,-37.8302 26.6718,-77.825 37.8559,-119.83 10.1533,39.5052 22.1621,78.495 36.1551,116.841l110.656 302.667 87.8495 0 -196.16 -527.999c-21.1828,-56.8483 -37.6756,-95.8382 -49.5039,-117.33 -15.6681,-28.8365 -33.6812,-50.0193 -53.8333,-63.497 -20.3324,-13.5034 -44.5046,-20.1778 -72.5164,-20.1778 -16.9823,0 -36.0005,3.5047 -56.8226,10.4883z"
     id="path80" /></glyph>
   <glyph
   unicode="h"
   horiz-adv-x="556"
   id="glyph86"><path
     d="M65.9966 0l0 715.99 88.0041 0 0 -257.647c40.8453,47.8289 92.3335,71.666 154.671,71.666 38.1652,0 71.331,-7.49903 99.6521,-22.6775 28.1665,-15.1527 48.3443,-36.0005 60.5077,-62.6723 12.1634,-26.6718 18.1678,-65.4813 18.1678,-116.171l0 -328.489 -88.0041 0 0 328.179c0,43.8088 -9.48331,75.815 -28.3211,95.8124 -19.0182,19.9974 -45.6642,29.9961 -80.3505,29.9961 -25.8214,0 -50.1482,-6.64863 -72.9803,-20.152 -22.8321,-13.5034 -39.0156,-31.8258 -48.8339,-54.9929 -9.6637,-23.0125 -14.5084,-54.8383 -14.5084,-95.5032l0 -283.34 -88.0041 0z"
     id="path84" /></glyph>
   <glyph
   unicode="W"
   horiz-adv-x="943"
   id="glyph90"><path
     d="M200.498 0l-188.497 716.002 98.3381 0 107.328 -469.498c11.668,-49.1763 22.0041,-98.0052 30.8347,-146.342 18.8338,76.334 29.8358,120.342 32.9917,132.01l135.34 483.83 114.161 0 102.667 -362.503c25.1744,-89.9997 43.8345,-174.498 55.8354,-253.337 9.51099,45.1663 21.6712,97.0063 36.5095,155.505l111.83 460.335 95.1678 0 -196.01 -716.002 -92.1567 0 -150.164 545.499c-12.6668,45.673 -20.3393,73.6703 -23.1767,84.0065 -8.16468,-32.6732 -15.4897,-60.6705 -21.8304,-83.8328l-150.164 -545.673 -99.004 0z"
     id="path88" /></glyph>
   <glyph
   unicode="!"
   horiz-adv-x="277"
   id="glyph94"><path
     d="M113.001 177.993l-27.0068 379.333 0 158.665 109.007 0 0 -158.665 -24.9968 -379.333 -57.003 0zm-23.0125 -177.993l0 100.013 101.018 0 0 -100.013 -101.018 0z"
     id="path92" /></glyph>
   <glyph
   unicode="e"
   horiz-adv-x="556"
   id="glyph98"><path
     d="M419.997 167.994l90.9934 -11.983c-14.1477,-52.854 -40.6649,-94.0085 -79.3197,-123.18 -38.6806,-29.1715 -88.0041,-43.8346 -148.177,-43.8346 -75.6604,0 -135.653,23.3475 -180.003,69.991 -44.3242,46.5146 -66.4863,112.022 -66.4863,196.186 0,86.9991 22.3167,154.671 67.1563,202.654 44.8396,48.1639 103.002,72.1814 174.514,72.1814 69.1663,0 125.654,-23.5021 169.488,-70.6868 43.8346,-47.1589 65.842,-113.491 65.842,-198.995 0,-5.15398 -0.180389,-12.988 -0.515398,-23.3217l-386.497 0c3.35008,-56.8483 19.3274,-100.503 48.3443,-130.679 28.8365,-30.1508 64.9916,-45.3292 108.156,-45.3292 32.1608,0 59.683,8.50406 82.3348,25.5122 22.8321,16.9823 40.8453,44.1696 54.1683,81.4843zm-288.004 141.013l289.009 0c-3.83971,43.6542 -14.9981,76.3304 -33.1658,98.1575 -27.8315,33.8358 -64.167,50.844 -108.672,50.844 -40.3299,0 -74.1657,-13.5034 -101.662,-40.5102 -27.3418,-27.0068 -42.4945,-63.162 -45.5096,-108.491z"
     id="path96" /></glyph>
   <glyph
   unicode="v"
   horiz-adv-x="500"
   id="glyph102"><path
     d="M207.834 0l-195.825 519.005 94.1631 0 110.991 -310.836c12.0088,-33.5008 23.1671,-68.3417 33.3462,-104.497 7.83404,27.3161 18.6574,60.1727 32.8308,98.6729l115.32 316.66 90.3492 0 -196.521 -519.005 -84.654 0z"
     id="path100" /></glyph>
   <glyph
   unicode="C"
   horiz-adv-x="722"
   id="glyph106"><path
     d="M587.003 251.165l94.9941 -24.0019c-19.8327,-77.8251 -55.5025,-136.99 -106.995,-177.828 -51.507,-40.8379 -114.508,-61.3365 -189.004,-61.3365 -76.9999,0 -139.668,15.6635 -188.005,47.1641 -48.3222,31.3414 -84.9909,76.8407 -110.165,136.339 -25.16,59.6717 -37.8268,123.498 -37.8268,191.827 0,74.51 14.1724,139.509 42.6619,195.011 28.504,55.488 69.0089,97.6577 121.5,126.495 52.5059,28.837 110.339,43.1686 173.34,43.1686 71.6581,0 131.836,-18.1679 180.492,-54.6628 48.8433,-36.5095 82.8339,-87.669 102.001,-153.667l-92.9963 -22.0041c-16.5031,51.9992 -40.6642,89.9997 -72.1648,113.669 -31.5006,23.8281 -71.1659,35.6553 -118.996,35.6553 -54.8366,0 -100.843,-13.159 -137.67,-39.4916 -36.8424,-26.3326 -62.842,-61.8287 -77.6658,-106.17 -14.9975,-44.5004 -22.4963,-90.3327 -22.4963,-137.497 0,-60.8298 8.8306,-114.002 26.4918,-159.342 17.6612,-45.4993 45.1663,-79.3306 82.5009,-101.827 37.3346,-22.4963 77.6658,-33.6721 121.167,-33.6721 52.9981,0 97.6722,15.345 134.326,45.8322 36.6687,30.6755 61.5102,76.001 74.51,136.339z"
     id="path104" /></glyph>
   <glyph
   unicode="T"
   horiz-adv-x="610"
   id="glyph110"><path
     d="M258.997 0l0 631.996 -235.994 0 0 84.0065 566.997 0 0 -84.0065 -235.994 0 0 -631.996 -95.0085 0z"
     id="path108" /></glyph>
   <glyph
   unicode="/"
   horiz-adv-x="277"
   id="glyph114"><path
     d="M0 -12.0088l207.989 740.008 70.8414 0 -207.989 -740.008 -70.8414 0z"
     id="path112" /></glyph>
   <glyph
   unicode="b"
   horiz-adv-x="556"
   id="glyph118"><path
     d="M146.991 0l-81.9997 0 0 715.99 88.0041 0 0 -255.483c37.1602,46.3342 84.4994,69.5014 142.172,69.5014 31.8258,0 62.1569,-6.33939 90.6584,-19.1728 28.5015,-12.8334 51.849,-31.0012 70.3518,-54.1683 18.3224,-23.3217 32.8308,-51.3336 43.1645,-84.1644 10.4883,-32.6762 15.6681,-67.8263 15.6681,-105.167 0,-88.6741 -22.0075,-157.325 -65.842,-205.669 -44.0149,-48.4989 -96.6628,-72.671 -158.175,-72.671 -61.1519,0 -109.161,25.5122 -144.002,76.3304l0 -65.3266zm-0.979255 263.342c0,-62.0023 8.47829,-106.842 25.3318,-134.519 27.6511,-45.1488 64.9916,-67.8263 112.15,-67.8263 38.5002,0 71.666,16.6731 99.4975,49.9936 28.0119,33.3462 42.0049,83.0048 42.0049,149.001 0,67.6717 -13.323,117.511 -40.1752,149.671 -26.8264,32.1608 -59.3223,48.3443 -97.3328,48.3443 -38.5002,0 -71.666,-16.6731 -99.4975,-50.0193 -27.9861,-33.3204 -41.9791,-81.4843 -41.9791,-144.646z"
     id="path116" /></glyph>
   <glyph
   unicode="s"
   horiz-adv-x="500"
   id="glyph122"><path
     d="M31.0012 155.006l86.9991 13.993c4.84474,-34.8409 18.5028,-61.4869 40.8453,-80.1701 22.3167,-18.5028 53.6529,-27.8315 93.6477,-27.8315 40.5102,0 70.5064,8.16905 90.1688,24.6618 19.5078,16.3381 29.3261,35.6655 29.3261,57.8534 0,19.817 -8.8133,35.4851 -26.311,46.8239 -12.3438,7.83404 -42.3399,17.6524 -90.0142,29.8415 -64.3216,16.1577 -108.826,30.1508 -133.823,41.9791 -24.8422,12.0088 -43.6799,28.3469 -56.5133,49.3493 -12.8334,20.8221 -19.3274,43.9892 -19.3274,69.321 0,23.1671 5.33436,44.5046 15.8227,64.167 10.6687,19.6624 25.0225,36.0005 43.1903,49.0143 13.658,9.99871 32.3154,18.5028 55.8175,25.4864 23.6825,7.00941 48.8339,10.5141 75.8407,10.5141 40.6649,0 76.3304,-5.84976 106.997,-17.6781 30.8208,-11.6738 53.4983,-27.6768 68.1613,-47.6743 14.5084,-20.152 24.6618,-46.9785 30.1765,-80.6597l-85.9941 -12.0088c-3.83971,27.0068 -15.1785,48.1897 -33.8358,63.3424 -18.6832,15.1785 -45.02,22.6775 -79.1651,22.6775 -40.1752,0 -69.0117,-6.6744 -86.1745,-19.9974 -17.1627,-13.3488 -25.8472,-29.0169 -25.8472,-46.8496 0,-11.3387 3.5047,-21.6725 10.6687,-30.8208 7.16403,-9.32869 18.3482,-17.1627 33.6812,-23.3475 8.83907,-3.32431 34.5059,-10.8233 77.49,-22.4971 62.0023,-16.4927 105.347,-30.1508 130.009,-40.6649 24.6618,-10.4883 43.9892,-26.0018 58.008,-45.9992 14.1477,-20.152 21.1571,-45.1746 21.1571,-75.1707 0,-29.1715 -8.50406,-56.668 -25.6668,-82.4894 -17.1627,-25.8472 -41.8245,-45.8446 -74.0111,-59.9923 -32.3154,-14.1734 -68.8313,-21.1828 -109.496,-21.1828 -67.3367,0 -118.825,13.993 -154.155,41.8245 -35.3305,28.0119 -57.8276,69.3467 -67.6717,124.185z"
     id="path120" /></glyph>
   <glyph
   unicode=","
   horiz-adv-x="277"
   id="glyph126"><path
     d="M89.0091 0l0 100.013 99.9871 0 0 -100.013c0,-36.8252 -6.49401,-66.6667 -19.6624,-89.3442 -12.988,-22.6517 -33.8358,-40.3299 -62.3373,-52.6479l-23.9918 37.9848c18.6574,8.16905 32.3412,20.1778 40.9999,35.8459 8.83907,15.8227 13.8384,38.5002 14.8177,68.1613l-49.8132 0z"
     id="path124" /></glyph>
   <glyph
   unicode="p"
   horiz-adv-x="556"
   id="glyph130"><path
     d="M65.9966 -198.995l0 718 80.0155 0 0 -68.1613c18.812,26.311 40.1495,46.1538 63.9866,59.3223 23.6567,13.1684 52.4932,19.8428 86.3291,19.8428 44.35,0 83.3398,-11.3387 117.176,-34.1709 33.8358,-22.6775 59.3223,-54.8383 76.6654,-96.1732 17.1627,-41.4895 25.8214,-86.8445 25.8214,-136.323 0,-52.854 -9.48331,-100.503 -28.5015,-142.997 -18.9924,-42.3399 -46.6435,-74.8357 -82.979,-97.5132 -36.1809,-22.4971 -74.3461,-33.8358 -114.341,-33.8358 -29.3261,0 -55.6629,6.159 -78.83,18.5028 -23.3475,12.3438 -42.3399,27.8315 -57.338,46.6692l0 -253.163 -88.0041 0zm80.0155 455.328c0,-66.512 13.4776,-115.655 40.3299,-147.507 26.9811,-31.8258 59.6573,-47.8289 98.0028,-47.8289 38.9898,0 72.3103,16.4927 99.9871,49.5039 27.8315,33.0112 41.6699,84.0098 41.6699,153.176 0,65.9966 -13.5034,115.32 -40.6649,148.151 -27.1614,32.8308 -59.5026,49.1689 -97.1782,49.1689 -37.3148,0 -70.326,-17.4977 -98.9821,-52.3386 -28.8365,-34.9955 -43.1645,-85.6591 -43.1645,-152.326z"
     id="path128" /></glyph>
   <glyph
   unicode=")"
   horiz-adv-x="332"
   id="glyph134"><path
     d="M124.005 -209.999l-63.0073 0c97.3328,156.165 146.012,312.511 146.012,468.986 0,61.1777 -7.00941,121.84 -21.0024,182.013 -11.0037,48.8339 -26.5172,95.6578 -46.3342,140.678 -12.6788,29.1457 -39.0156,77.9796 -78.6754,146.321l63.0073 0c60.9973,-81.6647 106.172,-163.664 135.498,-245.999 24.9968,-70.8414 37.4952,-145.007 37.4952,-222.497 0,-87.8237 -16.8277,-172.839 -50.509,-254.838 -33.5008,-81.9997 -74.3203,-153.485 -122.484,-214.663z"
     id="path132" /></glyph>
   <glyph
   unicode="K"
   horiz-adv-x="667"
   id="glyph138"><path
     d="M73.0061 0l0 715.99 94.9878 0 0 -354.98 355.676 354.98 128.334 0 -300.348 -290.323 313.336 -425.667 -124.984 0 -254.838 361.345 -117.176 -113.336 0 -248.009 -94.9878 0z"
     id="path136" /></glyph>
   <glyph
   unicode=":"
   horiz-adv-x="277"
   id="glyph142"><path
     d="M89.9884 418.992l0 100.013 100.013 0 0 -100.013 -100.013 0zm0 -418.992l0 100.013 100.013 0 0 -100.013 -100.013 0z"
     id="path140" /></glyph>
   <glyph
   unicode="m"
   horiz-adv-x="833"
   id="glyph146"><path
     d="M65.9966 0l0 519.005 79.0104 0 0 -73.3411c16.1577,25.3318 37.8302,45.8446 64.837,61.1777 26.9811,15.4877 57.6472,23.1671 92.1531,23.1671 38.3456,0 69.8364,-8.01443 94.3435,-23.8371 24.4814,-16.0031 41.8245,-38.1652 51.8232,-66.8471 41.3349,60.5077 94.8331,90.6842 160.83,90.6842 51.6686,0 91.5088,-14.1734 119.186,-42.6749 27.8315,-28.5015 41.8245,-72.336 41.8245,-131.504l0 -355.83 -88.0041 0 0 326.659c0,34.9955 -2.98931,60.353 -8.65868,75.8407 -5.66937,15.4877 -16.0031,27.8315 -31.1815,37.3405 -14.9981,9.48331 -32.6504,14.1477 -52.8282,14.1477 -36.6705,0 -67.0017,-12.1634 -91.1738,-36.3098 -24.1464,-24.3525 -36.1551,-63.1877 -36.1551,-116.506l0 -301.173 -88.0041 0 0 336.838c0,38.9898 -7.16403,68.3159 -21.4921,87.8237 -14.3281,19.5078 -37.8302,29.3261 -70.3518,29.3261 -24.6618,0 -47.4939,-6.49401 -68.4963,-19.482 -21.0024,-13.0138 -36.1551,-32.0062 -45.6642,-57.1834 -9.32869,-24.9968 -13.993,-61.1519 -13.993,-108.311l0 -269.012 -88.0041 0z"
     id="path144" /></glyph>
   <glyph
   unicode="Y"
   horiz-adv-x="667"
   id="glyph150"><path
     d="M278.83 0l0 303.337 -275.995 412.653 114.006 0 141.502 -216.647c26.311,-40.1752 50.8182,-80.3505 73.1607,-120.5 21.8271,37.4952 48.3185,79.5001 79.1651,126.169l138.668 210.978 110.501 0 -285.994 -412.653 0 -303.337 -95.0135 0z"
     id="path148" /></glyph>
   <glyph
   unicode="j"
   horiz-adv-x="222"
   id="glyph154"><path
     d="M65.507 613.993l0 101.997 88.0041 0 0 -101.997 -88.0041 0zm-111.352 -814.663l16.1835 74.5007c17.6524,-4.50973 31.4908,-6.82902 41.6699,-6.82902 17.9874,0 31.3362,6.00438 40.1495,17.8328 8.83907,11.8284 13.3488,41.6699 13.3488,89.1638l0 545.007 88.0041 0 0 -546.837c0,-63.832 -8.34944,-108.337 -25.0225,-133.333 -21.1571,-32.4958 -56.3329,-48.8339 -105.476,-48.8339 -23.8371,0 -46.6692,3.16969 -68.8571,9.32869z"
     id="path152" /></glyph>
   <glyph
   unicode="H"
   horiz-adv-x="722"
   id="glyph158"><path
     d="M80.9954 0l0 716.002 95.0085 0 0 -295 370.002 0 0 295 94.9941 0 0 -716.002 -94.9941 0 0 336.996 -370.002 0 0 -336.996 -95.0085 0z"
     id="path156" /></glyph>
   <glyph
   unicode="x"
   horiz-adv-x="500"
   id="glyph162"><path
     d="M6.00438 0l189.486 268.831 -175.493 250.174 108.182 0 81.9997 -122.51c15.1527,-22.9867 27.1614,-41.6699 35.6655,-56.3329 14.8177,20.8478 27.9861,39.6598 39.8145,56.5133l86.3291 122.33 107.512 0 -176.498 -250.174 187.991 -268.831 -106.997 0 -107.332 160.005 -24.5072 38.5002 -138.668 -198.505 -107.486 0z"
     id="path160" /></glyph>
   <glyph
   unicode="g"
   horiz-adv-x="556"
   id="glyph166"><path
     d="M49.8389 -43.0099l84.989 -11.983c3.5047,-26.3368 13.5034,-45.5096 29.8415,-57.673 21.8271,-16.1577 51.6686,-24.3268 89.4988,-24.3268 40.6649,0 72.1557,8.16905 94.3435,24.3268 22.1621,16.1577 37.1602,38.9898 44.9942,68.1613 4.48396,17.8328 6.64863,55.3279 6.33939,112.511 -38.5002,-45.3292 -86.3549,-68.0067 -143.667,-68.0067 -71.3568,0 -126.685,25.6668 -165.675,77.155 -39.1702,51.3336 -58.678,113.001 -58.678,184.847 0,49.5039 9.01946,95.1681 26.8522,136.993 17.8328,41.8503 43.8346,74.0111 77.825,96.8432 33.9905,22.8321 73.9853,34.1709 119.985,34.1709 61.1777,0 111.687,-24.9968 151.346,-75.0161l0 64.0124 80.9947 0 0 -448.164c0,-80.8401 -8.16905,-137.998 -24.6618,-171.679 -16.3381,-33.6555 -42.4945,-60.3273 -78.0054,-79.8351 -35.6655,-19.482 -79.5001,-29.3261 -131.504,-29.3261 -61.8219,0 -111.661,13.8384 -149.646,41.6699 -38.191,27.6511 -56.5133,69.5014 -55.1733,125.319zm72.001 311.352c0,-67.8521 13.5034,-117.33 40.4845,-148.512 27.1872,-31.1558 60.9973,-46.8239 101.688,-46.8239 40.4845,0 74.3203,15.4877 101.817,46.4889 27.3418,31.0012 40.9999,79.6805 40.9999,146.012 0,63.3166 -14.1734,111.171 -42.3399,143.332 -28.1665,32.1608 -62.1569,48.1639 -101.817,48.1639 -39.1702,0 -72.336,-15.8485 -99.8325,-47.4939 -27.3418,-31.6712 -40.9999,-78.6754 -40.9999,-141.167z"
     id="path164" /></glyph>
   <glyph
   unicode="V"
   horiz-adv-x="666"
   id="glyph170"><path
     d="M281.001 0l-276.673 716.002 102.667 0 186.007 -520.339c14.8383,-41.663 27.4907,-80.6624 37.4938,-117.157 11.0021,39.1586 23.8426,78.158 38.5072,117.157l192.999 520.339 96.6588 0 -279.163 -716.002 -98.4974 0z"
     id="path168" /></glyph>
   <glyph
   unicode="E"
   horiz-adv-x="666"
   id="glyph174"><path
     d="M78.9977 0l0 716.002 516.995 0 0 -84.0065 -421.987 0 0 -219.998 394.988 0 0 -83.992 -394.988 0 0 -244 438.996 0 0 -84.0065 -534.005 0z"
     id="path172" /></glyph>
   <glyph
   unicode="u"
   horiz-adv-x="556"
   id="glyph178"><path
     d="M404.999 0l0 77.155c-40.3299,-58.8326 -94.9878,-88.1587 -164.154,-88.1587 -30.5115,0 -59.013,5.84976 -85.5044,17.4977 -26.5172,11.8284 -46.1796,26.5172 -59.013,44.1696 -12.8334,17.8328 -21.8271,39.5052 -27.0068,65.172 -3.47893,17.3431 -5.30859,44.6592 -5.30859,81.9997l0 321.17 87.9784 0 0 -287.179c0,-45.8188 1.85543,-76.82 5.33436,-92.6685 5.51475,-23.1671 17.1627,-41.1545 35.1759,-54.3229 17.8328,-13.1684 39.8402,-19.8428 66.177,-19.8428 26.311,0 50.9986,6.6744 73.9853,20.1778 23.0125,13.5034 39.3248,32.0062 49.0143,55.1733 9.48331,23.1671 14.3281,57.003 14.3281,101.147l0 277.516 88.0041 0 0 -519.005 -79.0104 0z"
     id="path176" /></glyph>
   <glyph
   unicode="d"
   horiz-adv-x="556"
   id="glyph182"><path
     d="M401.005 0l0 65.842c-32.8308,-51.179 -81.1751,-76.8458 -145.007,-76.8458 -41.3349,0 -79.3197,11.3387 -113.826,34.1709 -34.6605,22.6775 -61.5127,54.5033 -80.6597,95.1681 -19.0182,40.8195 -28.5015,87.6691 -28.5015,140.652 0,51.6686 8.65868,98.5182 25.8214,140.678 17.3431,42.0049 43.1645,74.3461 77.6704,96.6628 34.3255,22.4971 73.0061,33.6812 115.501,33.6812 31.3362,0 59.1676,-6.6744 83.4944,-19.8428 24.3268,-13.1684 44.1696,-30.5115 59.5026,-51.6686l0 257.493 88.0041 0 0 -715.99 -81.9997 0zm-278.005 258.833c0,-66.3317 13.993,-115.836 42.1595,-148.666 28.0119,-32.8308 61.1777,-49.1689 99.3429,-49.1689 38.5002,0 71.1764,15.6681 98.1575,47.0043 26.8522,31.3362 40.3299,79.1651 40.3299,143.487 0,70.6868 -13.658,122.69 -41.1545,155.856 -27.3418,33.1658 -61.1777,49.6585 -101.327,49.6585 -39.1702,0 -71.8464,-15.8485 -98.1832,-47.6743 -26.1564,-31.8258 -39.3248,-81.9997 -39.3248,-150.496z"
     id="path180" /></glyph>
   <glyph
   unicode="S"
   horiz-adv-x="666"
   id="glyph186"><path
     d="M46.006 230.001l89.0008 8.00544c4.15472,-36.0028 13.9987,-65.5057 29.4884,-88.6679 15.5042,-23.003 39.5061,-41.6775 72.0056,-56.0091 32.4995,-14.1579 69.1682,-21.3237 109.832,-21.3237 36.162,0 67.9956,5.32731 95.66,16.1557 27.6789,10.8428 48.1774,25.6666 61.6694,44.5004 13.5065,18.8338 20.3393,39.3323 20.3393,61.3365 0,22.3371 -6.4999,41.8368 -19.4997,58.6728 -12.9998,16.6623 -34.4972,30.661 -64.5068,42.1552 -19.1667,7.33953 -61.6549,19.0075 -127.494,34.8447 -65.8386,15.8227 -111.83,30.661 -138.163,44.6597 -34.1788,18.0086 -59.5124,40.3312 -76.1748,66.8375 -16.836,26.4918 -25.16,56.3276 -25.16,89.1601 0,36.3357 10.3361,70.1671 30.8347,101.508 20.4986,31.5006 50.3344,55.3288 89.826,71.6581 39.3323,16.3438 83.1669,24.5085 131.33,24.5085 52.9981,0 99.8437,-8.49764 140.334,-25.6666 40.5049,-17.0098 71.6726,-42.1697 93.503,-75.5088 21.8304,-33.1654 33.4984,-70.833 35.1631,-112.829l-90.9986 -6.9921c-4.83511,45.1663 -21.3237,79.3306 -49.4948,102.334 -28.1711,23.1622 -69.8341,34.6565 -124.83,34.6565 -57.341,0 -99.1777,-10.4954 -125.337,-31.5006 -26.1733,-20.9908 -39.3323,-46.3244 -39.3323,-76.001 0,-25.6666 9.33727,-46.8311 27.8236,-63.4934 18.3416,-16.5031 65.8386,-33.6721 142.839,-51.0003 76.9999,-17.502 129.839,-32.6732 158.502,-45.673 41.5038,-19.1667 72.3385,-43.3278 92.1712,-72.8307 19.8327,-29.3292 29.6621,-63.1605 29.6621,-101.494 0,-38.1742 -10.8283,-73.8441 -32.6732,-107.502 -21.8304,-33.6721 -52.9981,-59.8309 -93.8215,-78.5055 -40.8379,-18.6601 -86.6701,-27.9973 -137.844,-27.9973 -64.666,0 -118.822,9.49651 -162.497,28.3303 -43.8345,18.8338 -77.9988,47.1641 -102.826,85.1646 -25.0007,37.8413 -38.0005,80.6769 -39.3323,128.507z"
     id="path184" /></glyph>
   <glyph
   unicode=" "
   horiz-adv-x="277"
   id="glyph188" />
   <glyph
   unicode="P"
   horiz-adv-x="667"
   id="glyph192"><path
     d="M77.0004 0l0 715.99 270.326 0c47.5196,0 83.8294,-2.31929 109.007,-6.82902 35.1759,-5.82399 64.6566,-16.9823 88.4938,-33.3204 23.8371,-16.5185 43.0099,-39.5052 57.5184,-69.0117 14.4827,-29.5065 21.6467,-62.0023 21.6467,-97.4874 0,-60.6623 -19.3274,-112.176 -58.1626,-154.181 -38.6548,-42.1595 -108.826,-63.162 -210.153,-63.162l-183.688 0 0 -291.998 -94.9878 0zm94.9878 376.008l185.002 0c61.3323,0 104.677,11.313 130.499,34.1709 25.6668,22.8321 38.5002,54.8125 38.5002,96.3278 0,29.8157 -7.49903,55.4825 -22.6517,76.82 -15.1785,21.3375 -35.1759,35.5109 -59.8376,42.3399 -16.0031,4.17472 -45.5096,6.33939 -88.3391,6.33939l-183.172 0 0 -255.998z"
     id="path190" /></glyph>
   <glyph
   unicode="."
   horiz-adv-x="277"
   id="glyph196"><path
     d="M90.9934 0l0 100.013 100.013 0 0 -100.013 -100.013 0z"
     id="path194" /></glyph>
   <glyph
   unicode="a"
   horiz-adv-x="556"
   id="glyph200"><path
     d="M404.999 64.9916c-32.6762,-27.8315 -64.167,-47.3135 -94.3435,-58.8326 -30.1508,-11.4934 -62.4919,-17.1627 -97.1524,-17.1627 -57.003,0 -100.838,13.8384 -131.504,41.6699 -30.6662,27.6768 -45.9992,63.162 -45.9992,106.327 0,25.3318 5.82399,48.4989 17.3431,69.5014 11.648,21.0024 26.8264,37.6756 45.4838,50.3286 18.8378,12.6788 39.8402,22.3425 63.3424,28.8365 17.3174,4.50973 43.4995,8.83907 78.3404,13.1684 70.996,8.34944 123.489,18.5028 156.99,30.1765 0.335008,12.0088 0.489628,19.6624 0.489628,22.8321 0,35.6655 -8.32367,60.8427 -24.9968,75.5057 -22.4971,19.817 -55.9979,29.6611 -100.322,29.6611 -41.5153,0 -72.1814,-7.34441 -91.8438,-21.8271 -19.817,-14.5084 -34.3255,-40.1752 -43.8346,-77.1808l-85.9941 12.0088c7.83404,36.8252 20.6674,66.6667 38.6806,89.3184 17.9874,22.6775 43.9892,40.0206 77.9796,52.3386 33.8358,12.1634 73.3411,18.3482 118,18.3482 44.35,0 80.5051,-5.17974 108.337,-15.6681 27.6768,-10.5141 48.1639,-23.5021 61.1777,-39.3506 12.988,-15.8227 22.1621,-35.8201 27.4965,-59.9923 2.83469,-14.9981 4.32934,-42.0049 4.32934,-80.8401l0 -116.66c0,-81.5101 1.82966,-132.998 5.48898,-154.825 3.5047,-21.8271 10.8491,-42.6749 21.5178,-62.6723l-91.9985 0c-8.83907,18.5028 -14.5084,40.1752 -17.0081,64.9916zm-7.00941 195.001c-31.9804,-12.988 -79.9897,-23.9918 -144.002,-32.9854 -36.3098,-5.17974 -61.9765,-11.0037 -77.0004,-17.4977 -14.9981,-6.51978 -26.4914,-16.0031 -34.6605,-28.3469 -8.16905,-12.4984 -12.318,-26.3368 -12.318,-41.6699 0,-23.1671 8.8133,-42.6491 26.6461,-58.1626 17.8328,-15.4877 43.8346,-23.3217 78.0054,-23.3217 33.8358,0 64.0124,7.31864 90.5038,22.1621 26.3368,14.6631 45.8446,34.8409 58.1626,60.3273 9.50908,19.8428 14.1734,49.0143 14.1734,87.5145l0.489628 31.9804z"
     id="path198" /></glyph>
   <glyph
   unicode="r"
   horiz-adv-x="332"
   id="glyph204"><path
     d="M64.9916 0l0 519.005 79.0104 0 0 -79.5001c20.152,36.8252 38.8352,61.1519 55.9979,72.8257 17.1627,11.8284 36.0005,17.6781 56.4876,17.6781 29.6869,0 59.8376,-9.35446 90.5038,-27.8315l-31.3362 -81.1751c-21.3117,12.0088 -42.6491,17.9874 -63.9866,17.9874 -19.1728,0 -36.3355,-5.82399 -51.514,-17.3174 -15.1527,-11.4934 -25.976,-27.4965 -32.4958,-48.0093 -9.81832,-31.1558 -14.6631,-65.3266 -14.6631,-102.487l0 -271.176 -88.0041 0z"
     id="path202" /></glyph>
   <glyph
   unicode="?"
   horiz-adv-x="556"
   id="glyph208"><path
     d="M231 176.004c-0.332957,11.668 -0.506674,20.4986 -0.506674,26.3326 0,34.4972 4.83511,64.1594 14.6791,89.1601 7.16581,19.0075 18.6601,38.0005 34.6565,57.1673 11.668,13.9987 32.8325,34.338 63.175,61.1627 30.5018,26.8392 50.1607,48.1774 59.3242,64.1738 9.17803,16.1701 13.6657,33.4984 13.6657,52.5059 0,34.3235 -13.3328,64.4923 -39.9983,90.4919 -26.6655,25.9996 -59.3242,38.9994 -97.9907,38.9994 -37.5083,0 -68.676,-11.8272 -93.6767,-35.3369 -25.16,-23.6544 -41.4893,-60.4968 -49.3211,-110.658l-89.9997 11.0021c8.16468,66.823 32.1665,118.156 72.324,153.667 40.172,35.4961 93.17,53.331 159.168,53.331 69.8341,0 125.496,-19.0075 167.173,-57.1673 41.4893,-38.1742 62.3209,-84.3394 62.3209,-138.496 0,-31.3414 -7.32505,-60.1783 -21.9896,-86.5109 -14.6646,-26.4918 -43.3423,-58.4991 -86.0042,-96.3259 -28.6633,-25.3337 -47.3378,-44.0082 -56.1684,-56.0091 -8.8306,-12.0009 -15.3305,-25.8259 -19.4997,-41.4893 -4.1692,-15.5042 -6.65914,-40.8379 -7.32505,-76.001l-84.0065 0zm-15.9964 -176.004l0 100.003 100.003 0 0 -100.003 -100.003 0z"
     id="path206" /></glyph>
   <glyph
   unicode="M"
   horiz-adv-x="833"
   id="glyph212"><path
     d="M74.9903 0l0 715.99 142.018 0 169.334 -506.816c15.6681,-47.1846 26.9811,-82.5151 34.1709,-106.017 8.14328,26.0018 20.9767,64.3474 38.3198,114.831l172.323 498.003 126.839 0 0 -715.99 -90.9934 0 0 598.995 -208.994 -598.995 -85.3498 0 -206.649 609.999 0 -609.999 -91.0192 0z"
     id="path210" /></glyph>
   <glyph
   unicode="o"
   horiz-adv-x="556"
   id="glyph216"><path
     d="M33.0112 259.503c0,95.8382 26.6461,166.834 80.1443,212.988 44.5046,38.3456 99.0079,57.5184 163.175,57.5184 71.1764,0 129.494,-23.3475 174.849,-70.0168 45.1488,-46.4889 67.8263,-110.991 67.8263,-193.171 0,-66.6667 -9.99871,-118.98 -29.9961,-157.145 -19.9974,-38.1652 -49.1689,-67.8521 -87.5145,-89.0091 -38.1652,-21.1571 -79.9897,-31.6712 -125.164,-31.6712 -72.671,0 -131.323,23.1671 -176.163,69.6817 -44.8396,46.4889 -67.1563,113.491 -67.1563,200.825zm89.9884 -0.180389c0,-66.3317 14.5084,-115.99 43.4995,-148.821 29.1715,-33.0112 65.6616,-49.5039 109.831,-49.5039 43.6799,0 80.0155,16.4927 109.161,49.6585 29.0169,33.1658 43.4995,83.6748 43.4995,151.501 0,64.0124 -14.6631,112.511 -43.8346,145.342 -29.1457,33.0112 -65.4813,49.5039 -108.826,49.5039 -44.1696,0 -80.6597,-16.3381 -109.831,-49.1689 -28.9911,-32.8308 -43.4995,-82.3348 -43.4995,-148.512z"
     id="path214" /></glyph>
   <glyph
   unicode="("
   horiz-adv-x="332"
   id="glyph220"><path
     d="M233.99 -209.999c-48.3185,61.1777 -89.3184,132.663 -122.819,214.663 -33.5008,81.9997 -50.1739,167.015 -50.1739,254.838 0,77.49 12.4984,151.656 37.4952,222.497 29.3519,82.3348 74.5007,164.334 135.498,245.999l63.0073 0c-39.3248,-67.6717 -65.507,-115.99 -78.16,-145.007 -19.8428,-44.8138 -35.5109,-91.6634 -46.8496,-140.497 -13.993,-60.8169 -20.9767,-121.995 -20.9767,-183.507 0,-156.475 48.6535,-312.821 145.986,-468.986l-63.0073 0z"
     id="path218" /></glyph>
   <glyph
   unicode="l"
   horiz-adv-x="222"
   id="glyph224"><path
     d="M64.0124 0l0 715.99 87.9784 0 0 -715.99 -87.9784 0z"
     id="path222" /></glyph>
   <glyph
   unicode="i"
   horiz-adv-x="222"
   id="glyph228"><path
     d="M65.9966 616.003l0 99.9871 88.0041 0 0 -99.9871 -88.0041 0zm0 -616.003l0 519.005 88.0041 0 0 -519.005 -88.0041 0z"
     id="path226" /></glyph>
  </font>
</defs>
</svg>
