<?xml version="1.0" encoding="UTF-8" standalone="no"?>
<!-- Generator: Adobe Illustrator 19.0.0, SVG Export Plug-In . SVG Version: 6.00 Build 0)  -->

<svg
   xmlns:dc="http://purl.org/dc/elements/1.1/"
   xmlns:cc="http://creativecommons.org/ns#"
   xmlns:rdf="http://www.w3.org/1999/02/22-rdf-syntax-ns#"
   xmlns:svg="http://www.w3.org/2000/svg"
   xmlns="http://www.w3.org/2000/svg"
   xmlns:sodipodi="http://sodipodi.sourceforge.net/DTD/sodipodi-0.dtd"
   xmlns:inkscape="http://www.inkscape.org/namespaces/inkscape"
   version="1.1"
   id="Layer_1"
   x="0px"
   y="0px"
   viewBox="0 0 500 500"
   style="enable-background:new 0 0 500 500;"
   xml:space="preserve"
   sodipodi:docname="css-logo.svg"
   inkscape:version="0.92.5 (2060ec1f9f, 2020-04-08)"><metadata
   id="metadata21"><rdf:RDF><cc:Work
       rdf:about=""><dc:format>image/svg+xml</dc:format><dc:type
         rdf:resource="http://purl.org/dc/dcmitype/StillImage" /><dc:title></dc:title></cc:Work></rdf:RDF></metadata><defs
   id="defs19" /><sodipodi:namedview
   pagecolor="#ffffff"
   bordercolor="#666666"
   borderopacity="1"
   objecttolerance="10"
   gridtolerance="10"
   guidetolerance="10"
   inkscape:pageopacity="0"
   inkscape:pageshadow="2"
   inkscape:window-width="838"
   inkscape:window-height="480"
   id="namedview17"
   showgrid="false"
   inkscape:zoom="0.472"
   inkscape:cx="250"
   inkscape:cy="250"
   inkscape:window-x="0"
   inkscape:window-y="32"
   inkscape:window-maximized="0"
   inkscape:current-layer="Layer_1" />
<style
   type="text/css"
   id="style2">
	.st0{fill:#1F72B5;}
	.st1{fill:#51A3DC;}
	.st2{fill:#EBEBEB;}
	.st3{fill:#CECECE;}
</style>
<g
   id="XMLID_1_">
	<polygon
   id="XMLID_11_"
   class="st0"
   points="145.7,401.1 122.5,140.7 377.5,140.7 354.3,401 249.8,430  " />
	<polygon
   id="XMLID_10_"
   class="st1"
   points="250,407.9 334.4,384.5 354.3,162 250,162  " />
	<polygon
   id="XMLID_35_"
   class="st2"
   points="167.1,222.1 164,192 336,192 334,226.9 261.3,259 331,259 323.5,358 253.2,376.9    180.3,359.2 175.8,309 208,309 209.8,335.5 252,343.4 291,331.4 292.8,289 173,289 170.8,257.5 250,222.8  " />
	<g
   id="XMLID_2_">
		<polygon
   id="XMLID_39_"
   class="st3"
   points="170.8,257.5 173,289 250,289 250,222.8   " />
		<polygon
   id="XMLID_40_"
   class="st3"
   points="209.8,335.5 208,309 175.8,309 180.3,359.2 250,376.1 250,343   " />
		<polygon
   id="XMLID_41_"
   class="st3"
   points="164,192 167.1,222.1 250,222.8 250,192   " />
	</g>
	<g
   id="XMLID_36_">
		<polygon
   id="XMLID_34_"
   points="274,82 274,70 226,70 226,98 259,98 259,107 225,107 225,118 273,118 273,89 239,89 239,82   " />
		<polygon
   id="XMLID_38_"
   points="187,98.3 187,107 221,107 221,118 173,118 173,89.3 173,70 220,70 220,82 187,82   " />
		<polygon
   id="XMLID_37_"
   points="327,82 327,70 279,70 279,98 312,98 312,107 278,107 278,118 326,118 326,89 292,89 292,82   " />
	</g>
</g>
</svg>