<?xml version="1.0" encoding="UTF-8" standalone="no"?>
<!-- Created with Inkscape (http://www.inkscape.org/) -->

<svg
   xmlns:dc="http://purl.org/dc/elements/1.1/"
   xmlns:cc="http://creativecommons.org/ns#"
   xmlns:rdf="http://www.w3.org/1999/02/22-rdf-syntax-ns#"
   xmlns:svg="http://www.w3.org/2000/svg"
   xmlns="http://www.w3.org/2000/svg"
   xmlns:sodipodi="http://sodipodi.sourceforge.net/DTD/sodipodi-0.dtd"
   xmlns:inkscape="http://www.inkscape.org/namespaces/inkscape"
   version="1.1"
   id="svg2"
   xml:space="preserve"
   width="192"
   height="183.06616"
   viewBox="0 0 192 183.06616"
   sodipodi:docname="figIX-08-02-oil-pump.svg"
   inkscape:version="0.92.5 (2060ec1f9f, 2020-04-08)"><metadata
     id="metadata8"><rdf:RDF><cc:Work
         rdf:about=""><dc:format>image/svg+xml</dc:format><dc:type
           rdf:resource="http://purl.org/dc/dcmitype/StillImage" /><dc:title></dc:title></cc:Work></rdf:RDF></metadata><defs
     id="defs6"><clipPath
       clipPathUnits="userSpaceOnUse"
       id="clipPath20"><path
         d="M 0,485.035 H 648.988 V 0 H 0 Z"
         id="path18"
         inkscape:connector-curvature="0" /></clipPath><clipPath
       clipPathUnits="userSpaceOnUse"
       id="clipPath318"><path
         d="M 0,485.035 H 648.988 V 0 H 0 Z"
         id="path316"
         inkscape:connector-curvature="0" /></clipPath></defs><sodipodi:namedview
     pagecolor="#ffffff"
     bordercolor="#666666"
     borderopacity="1"
     objecttolerance="10"
     gridtolerance="10"
     guidetolerance="10"
     inkscape:pageopacity="0"
     inkscape:pageshadow="2"
     inkscape:window-width="1953"
     inkscape:window-height="1706"
     id="namedview4"
     showgrid="false"
     fit-margin-top="0"
     fit-margin-left="0"
     fit-margin-right="0"
     fit-margin-bottom="0"
     inkscape:zoom="1.0321556"
     inkscape:cx="-102.95972"
     inkscape:cy="123.43166"
     inkscape:window-x="1243"
     inkscape:window-y="251"
     inkscape:window-maximized="0"
     inkscape:current-layer="g10" /><g
     id="g10"
     inkscape:groupmode="layer"
     inkscape:label="oil-pumps-silhouettes"
     transform="matrix(1.3333333,0,0,-1.3333333,-271.85519,215.40149)"><path
       inkscape:connector-curvature="0"
       id="path324"
       style="fill:#991919;fill-opacity:1;fill-rule:evenodd;stroke:none;stroke-width:1.10915124"
       d="m 211.34157,41.650756 h 3.94969 v -2.999145 h -3.94969 v 1.101387 h -7.45017 v 0.997127 h 7.45017 z m 56.25061,12.599959 h -5.75095 c -0.71651,-3.297507 -1.43302,-6.598341 -2.14843,-9.899176 2.34919,0.01664 4.69837,0.03327 7.04977,0.04991 0.28394,3.283088 0.56567,6.567285 0.84961,9.849264 m 34.25059,1.500681 c -0.24956,-0.0488 -0.50134,-0.09982 -0.752,-0.150844 v -0.04991 c 2.25268,-7.432423 4.50093,-14.864846 6.75251,-22.298378 h 1.34984 c -2.40132,7.497863 -4.80263,15.000163 -7.19951,22.499134 z M 286.09171,61.60106 V 45.650356 h 2.40132 v 15.903011 c -0.80081,0.01553 -1.60162,0.03327 -2.40132,0.04769 m -17.74864,0.749787 c -1.58497,-0.01553 -3.16773,-0.03328 -4.74938,-0.04769 -0.50356,-2.35251 -1.00157,-4.701692 -1.5029,-7.050875 h 5.6001 c 0.2174,2.36582 0.43479,4.730531 0.65218,7.098569 m 20.94965,-0.850719 V 45.650356 h 5.04997 V 34.151784 h -0.90174 v 10.550247 h -5.94838 V 34.151784 h -0.95165 v 10.550247 h -6.29998 V 34.151784 h -0.79859 v 10.550247 h -5.05107 V 34.151784 h -0.79859 v 10.550247 h -0.24956 v 0.948325 h 11.84906 c -0.0177,5.333908 -0.0333,10.667817 -0.0499,16.000616 -3.78443,0.0854 -7.56774,0.165264 -11.34995,0.250668 0.0998,0.348274 0.19854,0.698766 0.30058,1.049258 4.38226,-0.08208 8.76674,-0.165264 13.1501,-0.249559 1.40973,-0.214067 3.32967,0.376002 4.49983,-0.149736 0.21628,-0.367129 0.43146,-0.735367 0.64885,-1.099169 -1.03262,0.01442 -2.06635,0.03217 -3.09897,0.04769 m -25.45169,1.699219 h 4.60076 c 0.13199,1.586087 0.26619,3.169955 0.40151,4.753823 h -4.00182 c -0.33385,-1.583868 -0.6666,-3.167736 -1.00045,-4.753823 m 48.65181,7.051984 c 0.14863,-0.448097 0.29725,-0.898412 0.44921,-1.349837 2.2671,-1.783515 4.53199,-3.568139 6.79909,-5.350546 6.16578,-4.932395 12.33488,-9.864791 18.49954,-14.798296 0.007,0.461407 -0.0377,1.065894 -0.19965,1.39753 -8.51495,6.701493 -17.03213,13.400766 -25.54819,20.101149 m -43.55082,-1.450769 c 0.11646,1.350946 0.23292,2.699674 0.35049,4.05062 -1.13466,-0.01553 -2.266,-0.03216 -3.40177,-0.04769 -0.28172,-1.334309 -0.56567,-2.667509 -0.8485,-4.002927 z m 0.4492,4.951251 c 0.18412,2.116261 0.36602,4.23363 0.55125,6.351 h -2.45012 c -0.45142,-2.11737 -0.90063,-4.234739 -1.35094,-6.351 z m 0.64996,7.199501 c 0.16638,1.899976 0.33386,3.799952 0.50134,5.699929 h -1.6005 c -0.41594,-1.899977 -0.83298,-3.799953 -1.25113,-5.699929 z m 53.05071,13.751258 c -0.11979,-0.05435 -0.26287,-0.06544 -0.34938,-0.151954 -0.49246,-0.893976 0.10093,-1.379784 0.39818,-2.100732 h 0.0998 c 0.20075,0.387093 0.40151,0.768641 0.60116,1.153517 -0.14974,0.364911 -0.29836,0.729821 -0.45032,1.099169 z M 221.4903,46.000847 h 1.60051 v -3.151098 h -1.64931 v -7.69862 h 3.05017 v -1.45077 h 2.69967 v -1.049257 h -2.69967 v -1.651526 h -1.65153 v -2.399094 h 6.40202 v -1.648199 h -6.40202 v -1.45077 h -5.44815 v 1.45077 h -9.65073 c 0.0166,1.896649 0.0344,3.798843 0.0499,5.698819 h -0.64997 v 2.050821 h 0.89953 v 4.8481 h 0.85071 v -4.8481 h 0.29837 v -2.050821 h -0.64886 v -4.05062 h 8.85103 v 2.399094 h -2.00091 v 4.151553 h 4.70058 v 7.69862 h -1.10027 v 3.151098 h 1.75024 c 0.4004,16.432077 0.8008,32.871917 1.2001,49.299557 0.25067,-0.282833 0.49912,-0.567885 0.74868,-0.8485 -0.39819,-16.147025 -0.79859,-32.302923 -1.20011,-48.451057 m 82.40107,51.15184 c 0.051,-0.567885 0.0998,-1.133553 0.15085,-1.700329 0.26619,-0.151954 0.53239,-0.301689 0.7997,-0.450315 0.0499,0.03327 0.10093,0.06877 0.14973,0.09871 0.16748,0.283943 0.33386,0.566776 0.50134,0.851828 -0.15196,0.399295 -0.30058,0.79748 -0.45143,1.200102 z m 17.50019,-0.500227 c -3.84875,0.282833 -7.70084,0.565667 -11.54959,0.847391 v 0.05324 c 0.0832,0.265087 0.16748,0.531283 0.25067,0.798589 v 0.05102 c -1.26665,-0.199648 -2.53219,-0.398186 -3.80106,-0.60116 v -0.0488 c 0.55679,-1.704766 0.36269,-2.180592 -0.30058,-3.500482 1.6005,-4.763804 3.20212,-9.534264 4.80151,-14.300287 h 12.44801 c 1.23448,-0.767533 2.47008,-1.533957 3.70124,-2.298162 -1.23116,4.297961 -2.46676,8.597032 -3.70124,12.898321 -0.20963,0.614469 -0.96164,0.8485 -1.29771,1.352055 -0.64442,0.957198 -0.54792,3.247595 -0.55125,4.748277 m -50.74922,-9.249213 c 0.3505,3.880921 0.69877,7.765168 1.04926,11.649416 h -0.0488 c -0.84961,-3.884248 -1.70033,-7.768495 -2.55105,-11.649416 z m -46.20058,20.299681 c -0.0122,-0.91283 -0.21296,-5.84411 0.0987,-6.19793 0.15085,-0.12201 0.30169,-0.23625 0.45032,-0.35271 v 6.25117 c -0.18301,0.0976 -0.36491,0.19965 -0.54903,0.29947 m -2.29927,-7.70194 v 7.09968 c -0.74757,-0.0499 -1.13356,0.43367 -1.60162,0.8008 v -5.5513 c 0.53461,-0.92836 0.4969,-1.61825 0.49912,-3.147769 0.25178,0.266196 0.50244,0.532392 0.752,0.798589 z m 1.69922,8.10013 c -0.68879,-0.315 -0.945,-0.58674 -1.50069,-0.94832 v -7.15181 c 0.33719,-0.06433 0.44366,-0.268415 0.60005,-0.500228 0.0843,0.0843 0.16749,0.167482 0.24956,0.250669 0.21629,0.18301 0.43479,0.369349 0.65108,0.551249 v 1.6482 c 0.0976,-0.0665 0.19964,-0.13199 0.29947,-0.19854 0.01,0.91616 0.21406,5.89181 -0.0998,6.25007 -0.0677,0.0344 -0.1331,0.0688 -0.19964,0.0987 m 57.34977,12.90165 v -1.10028 c -0.76642,-0.0677 -1.53174,-0.13421 -2.29927,-0.20076 0.0654,-0.68323 0.13421,-1.36536 0.19965,-2.05082 0.63443,-0.0477 1.26665,-0.0998 1.89998,-0.14751 0.0987,-0.60116 0.19964,-1.199 0.29947,-1.80238 0.41926,-0.68101 0.83408,-1.36758 1.25112,-2.04749 -0.0166,-1.2844 -0.0355,-2.56658 -0.0499,-3.85208 2.03196,-5.81528 4.06725,-11.632778 6.09922,-17.451386 3.75004,-10.846391 7.50008,-21.699436 11.25012,-32.549154 1.38311,0.03438 2.76622,0.06544 4.14934,0.09982 0.0666,0.466953 0.13531,0.935015 0.20186,1.401968 0.99935,0.382657 1.99758,0.765314 2.99804,1.145753 v 0.05435 c -0.56678,0.333855 -1.13245,0.665491 -1.69811,0.998237 0.0166,0.351601 0.0322,0.700983 0.0499,1.050366 -0.76864,0.465843 -1.53507,0.933905 -2.30149,1.399749 -0.0588,1.407513 -0.24956,2.461207 -0.7997,3.300834 -0.41482,0.01553 -0.83297,0.03328 -1.25001,0.04991 0.0188,0.583413 0.0333,1.1635 0.051,1.749132 2.25379,0.258432 1.71697,0.727603 2.24936,2.602068 0.71651,0.231813 1.43191,0.463626 2.15064,0.698766 0.11535,1.733603 0.23071,3.466098 0.34828,5.199701 0.75089,0.134207 1.50068,0.266196 2.25046,0.400404 v 0.04991 c -1.29992,4.649562 -2.59874,9.300233 -3.89977,13.950905 -0.43257,0.1819 -0.86736,0.366019 -1.29993,0.550139 -0.25067,1.46297 -0.50022,2.932596 -0.74978,4.400003 -0.30835,0.108697 -0.83187,0.236249 -1.00046,0.498009 -0.45031,1.784626 -0.90063,3.565926 -1.34873,5.351656 0.96497,0.54903 1.93325,1.10028 2.89933,1.6482 1.53284,-0.2662 3.0668,-0.53461 4.60076,-0.79859 -0.0155,0.63555 -0.071,1.57832 0.15084,2.05082 0.48137,0.28395 0.96385,0.56567 1.44744,0.85072 -0.11646,1.11359 -0.23292,2.2294 -0.34827,3.34742 -6.73366,2.31591 -13.46953,4.63403 -20.19986,6.95105 -2.15619,0.78084 -4.66953,2.14066 -7.30155,2.20056 M 325.0928,33.75138 c 4.95014,-0.316108 9.90139,-0.632216 14.84821,-0.949433 0.13421,-2.850519 0.26841,-5.701038 0.40151,-8.550447 -13.38302,0.450315 -26.76937,0.90174 -40.15128,1.349837 -0.24845,2.799498 -0.49911,5.601214 -0.74978,8.400712 -1.05037,0.04769 -2.09852,0.09982 -3.14999,0.149735 0.39929,4.663981 0.80081,9.332399 1.20121,13.998599 -6.70149,19.634196 -13.40077,39.27172 -20.10004,58.900367 h -1.20232 c -0.43146,-6.01603 -0.86514,-12.033179 -1.29882,-18.049216 -0.55014,-8.000308 -1.09917,-16.000617 -1.65041,-23.999816 -0.3505,-4.932396 -0.69988,-9.868119 -1.05037,-14.799405 -0.16526,-2.351401 -0.33164,-4.700584 -0.49912,-7.050875 -0.64442,-4.14268 -0.70431,-8.873211 -0.75089,-13.350854 0.86735,-0.01553 1.7336,-0.03327 2.60096,-0.0488 0.28283,-0.783061 0.56566,-1.566122 0.84961,-2.349183 -3.74783,0.198538 -7.50009,0.398186 -11.24902,0.598942 0.14863,0.649963 0.29836,1.297707 0.45143,1.949888 h 1.79793 c 0.41482,4.515355 0.83408,9.032928 1.25002,13.551611 h -7.1507 c -0.58342,-2.651981 -1.16572,-5.301744 -1.74803,-7.953724 v -7.39693 c -2.0009,0.150844 -4.0007,0.30058 -6.0005,0.448097 0.0499,2.314799 0.0976,4.635143 0.14973,6.948833 1.71586,7.652035 3.43282,15.30296 5.1509,22.951668 4.33124,19.580957 8.66691,39.168569 12.99814,58.751744 0.60116,0.25067 1.20122,0.50133 1.80127,0.74978 -0.0166,0.0499 -0.0344,0.10094 -0.051,0.15085 -0.44588,0.53128 -0.68213,1.29105 -0.99824,1.94656 0.34716,0.1697 0.69765,0.33607 1.04926,0.50133 -0.78639,0.58453 -1.56834,1.16683 -2.3503,1.75135 0.43146,0.0987 0.86514,0.19965 1.30104,0.29948 -0.10093,0.50022 -0.20187,1.00156 -0.30169,1.49957 -10.23192,3.40066 -20.46828,6.8002 -30.7002,10.20086 -0.74202,-0.63 -2.05415,-4.84699 -2.54994,-6.05042 -2.0486,-5.03333 -4.09942,-10.06776 -6.15024,-15.09887 -0.60005,-1.45743 -1.90663,-5.73654 -2.90043,-6.50185 -0.36048,-0.27729 -0.7032,-0.20963 -1.29771,-0.19854 -0.38044,0.40817 -0.63111,0.69655 -0.80192,1.34984 -0.3272,-0.26398 -0.37933,-0.43146 -0.95054,-0.50134 v -6.29887 c 0.1209,-0.36824 0.2296,-0.94721 0.25067,-1.499567 -0.23292,-0.218502 -0.46695,-0.433678 -0.69987,-0.649962 0.0665,-0.06766 0.13309,-0.133098 0.19853,-0.201866 0.14308,-0.272851 0.41039,-0.417041 0.3028,-0.651072 -0.45031,-1.057021 -0.23958,-0.474716 -0.10093,-1.39753 -0.83408,-0.450316 -1.66595,-0.90174 -2.50003,-1.352056 -0.3882,0.208521 -0.68434,0.439224 -0.95054,0.102042 -0.19965,0.181901 -0.4004,0.368239 -0.60116,0.550139 -0.53239,0.580086 -1.06479,1.165718 -1.5994,1.748023 0.0178,0.03438 0.0333,0.06766 0.0521,0.100933 0.41593,0.18301 0.83298,0.367129 1.24891,0.550139 v 0.05102 c -0.38488,0.23403 -0.76643,0.464734 -1.15019,0.699874 0.0166,0.848501 0.0344,1.700323 0.0499,2.552153 0.20186,0.21407 0.4004,0.42813 0.60005,0.64553 v 4.15155 2.05193 c -0.13421,0.24845 -0.2662,0.4969 -0.39819,0.74979 -0.02,0.73204 -0.0344,1.46519 -0.0521,2.19834 -0.26508,1.72916 -0.38043,4.20812 -0.0987,6.00161 v 4.89912 c 0.28283,2.29928 0.56567,4.59855 0.8485,6.89782 1.31656,5.62228 2.86161,10.55912 5.05108,15.30074 0.48248,0.83519 0.96607,1.66816 1.45077,2.50113 1.22783,2.89489 2.44235,5.51471 3.94857,8.09903 0.56678,1.13466 1.13356,2.26821 1.70033,3.40066 0.56567,0.41593 1.13356,0.83297 1.69922,1.25223 0.63444,0.49801 1.26665,0.99712 1.90109,1.49957 0.64996,0.0499 1.29992,0.0987 1.951,0.14752 0.39818,0.0344 0.79858,0.0677 1.19899,0.0998 1.21674,-0.43257 2.43348,-0.86514 3.64911,-1.2966 0.86735,-3.66907 1.7336,-7.33592 2.60096,-11.00167 -0.0333,-0.50023 -0.0666,-1.00045 -0.0998,-1.50068 0.51687,-0.21518 1.03151,-0.43368 1.54949,-0.64996 -0.14974,-0.33275 -0.30169,-0.66549 -0.45032,-1.00157 24.56548,-7.43242 49.13762,-14.86484 73.702,-22.29837 -1.40197,-4.53311 -2.80061,-9.06732 -4.20147,-13.59931 h -2.39909 c -0.39708,-1.45853 -0.61226,-4.23585 -0.10094,-6.09922 2.20167,-0.31722 4.40112,-0.63555 6.60056,-0.95054 0.58896,-0.11203 2.03419,-0.01 2.30038,-0.45254 0.23071,-1.21452 0.46585,-2.43126 0.69877,-3.647995 0.31722,-0.435896 0.63221,-0.866247 0.94943,-1.299925 v -2.350292 c 0.31722,-0.71873 0.63222,-1.434132 0.95054,-2.150644 0.21185,-0.942779 -0.40373,-1.744695 -0.19853,-2.699674 0.86513,-2.766224 1.73249,-5.532447 2.59985,-8.29978 0.61558,-2.066348 1.23226,-4.131588 1.84895,-6.199046 5.68218,-3.31969 11.3688,-6.636052 17.04877,-9.953524 0.16859,-1.348728 0.33274,-2.697456 0.50244,-4.047293 0.0488,-1.100278 0.0998,-2.201665 0.14974,-3.299725 0.0843,-1.834536 0.16637,-3.669073 0.24956,-5.501391 0.0688,-1.814571 0.13309,-3.63247 0.20075,-5.44926 0.0998,-2.318126 0.19854,-4.636252 0.29836,-6.951051 -0.0643,0.06877 -0.1342,0.133098 -0.19853,0.199647 -2.18392,1.701438 -4.36784,3.400658 -6.54954,5.100987 -0.31167,0.236249 -1.92992,1.5029 -2.00091,1.399749 -1.38311,-2.269324 -2.76622,-4.534211 -4.15044,-6.801316 -1.11581,0.04991 -2.23384,0.100933 -3.34964,0.151954 -2.33366,1.932141 -4.66842,3.865392 -7.00096,5.800861 0.15084,-4.319035 0.29947,-8.635852 0.45142,-12.95156" /></g></svg>