<?xml version="1.0" encoding="UTF-8" standalone="no"?>
<svg
   xmlns:dc="http://purl.org/dc/elements/1.1/"
   xmlns:cc="http://creativecommons.org/ns#"
   xmlns:rdf="http://www.w3.org/1999/02/22-rdf-syntax-ns#"
   xmlns:svg="http://www.w3.org/2000/svg"
   xmlns="http://www.w3.org/2000/svg"
   xmlns:sodipodi="http://sodipodi.sourceforge.net/DTD/sodipodi-0.dtd"
   xmlns:inkscape="http://www.inkscape.org/namespaces/inkscape"
   version="1.0"
   width="192"
   height="352.10175"
   viewBox="0 0 144 264.07631"
   preserveAspectRatio="xMidYMid meet"
   id="svg8"
   sodipodi:docname="figIX-08-00-smartphone.svg"
   inkscape:version="0.92.5 (2060ec1f9f, 2020-04-08)">
  <defs
     id="defs12" />
  <sodipodi:namedview
     pagecolor="#ffffff"
     bordercolor="#666666"
     borderopacity="1"
     objecttolerance="10"
     gridtolerance="10"
     guidetolerance="10"
     inkscape:pageopacity="0"
     inkscape:pageshadow="2"
     inkscape:window-width="1425"
     inkscape:window-height="1252"
     id="namedview10"
     showgrid="false"
     fit-margin-top="0"
     fit-margin-left="0"
     fit-margin-right="0"
     fit-margin-bottom="0"
     units="px"
     inkscape:zoom="1.5644738"
     inkscape:cx="139.74653"
     inkscape:cy="184.2879"
     inkscape:window-x="1403"
     inkscape:window-y="339"
     inkscape:window-maximized="0"
     inkscape:current-layer="svg8" />
  <metadata
     id="metadata2">
Created by potrace 1.15, written by Peter Selinger 2001-2017
<rdf:RDF>
  <cc:Work
     rdf:about="">
    <dc:format>image/svg+xml</dc:format>
    <dc:type
       rdf:resource="http://purl.org/dc/dcmitype/StillImage" />
    <dc:title></dc:title>
  </cc:Work>
</rdf:RDF>
</metadata>
  <g
     transform="matrix(0.02063029,0,0,-0.02063029,0,264.05568)"
     id="g6"
     style="fill:#000000;stroke:none">
    <path
       d="m 875,12785 c -188,-34 -328,-109 -477,-253 -126,-122 -210,-257 -268,-432 -56,-165 -60,-226 -60,-867 0,-498 -2,-583 -14,-583 -8,0 -24,-12 -35,-26 C 0,10597 0,10597 0,9365 0,8133 0,8133 21,8106 c 11,-14 27,-26 35,-26 12,0 14,-481 14,-3547 C 70,640 66,889 130,700 189,523 274,387 403,263 541,130 702,47 880,14 991,-6 5979,-6 6090,14 c 178,33 339,116 477,249 154,147 248,317 306,547 l 21,85 3,4023 3,4022 h 24 c 59,0 56,-24 56,415 0,439 3,415 -55,415 h -24 l -4,1068 c -3,1045 -3,1069 -24,1152 -24,98 -58,192 -98,270 -105,208 -312,401 -513,479 -169,65 1,61 -2786,60 -2024,-1 -2545,-3 -2601,-14 z m 4716,-370 c 64,-34 89,-128 50,-191 -20,-32 -74,-64 -110,-64 -40,0 -90,28 -111,62 -24,40 -27,114 -4,147 40,56 116,76 175,46 z m -489,-72 c 40,-36 8,-113 -49,-113 -55,0 -85,70 -46,112 20,22 70,23 95,1 z m -3117,-28 c 65,-64 -12,-173 -93,-131 -34,17 -42,34 -42,81 0,67 87,99 135,50 z m 2689,-34 c 49,-16 38,-27 -44,-40 -89,-15 -2201,-15 -2290,0 -106,17 -99,33 20,49 30,4 555,7 1165,6 878,-1 1118,-4 1149,-15 z m 1960,-597 46,-7 V 6315 953 l -142,-6 c -187,-9 -5919,-9 -6105,0 l -143,6 v 5363 5363 l 33,4 c 54,7 6261,7 6311,1 z M 4325,713 c 176,-94 170,-342 -10,-424 -38,-18 -85,-19 -828,-19 -869,0 -827,-3 -895,63 -51,48 -74,101 -74,166 0,115 69,205 177,232 17,4 381,7 810,6 779,-2 780,-2 820,-24 z"
       id="path4"
       inkscape:connector-curvature="0" />
  </g>
</svg>
